<?xml version="1.0" encoding="utf-8"?>
<!-- Generator: Adobe Illustrator 24.1.2, SVG Export Plug-In . SVG Version: 6.00 Build 0)  -->
<svg version="1.1" id="Capa_1" xmlns="http://www.w3.org/2000/svg" xmlns:xlink="http://www.w3.org/1999/xlink" x="0px" y="0px"
	 viewBox="0 0 250 250" style="enable-background:new 0 0 250 250;" xml:space="preserve">
<style type="text/css">
	.st0{fill:#4F46E5;}
	.st1{fill-rule:evenodd;clip-rule:evenodd;fill:#FFFFFF;}
</style>
<path class="st0" d="M125,250c54.8,0,85.2,0,105.1-19.9C250,210.2,250,179.8,250,125s0-85.2-19.9-105.1C210.2,0,179.8,0,125,0
	S39.8,0,19.9,19.9C0,39.8,0,70.2,0,125s0,85.2,19.9,105.1C39.8,250,70.2,250,125,250z"/>
<path class="st1" d="M125.2,42.1c3.5,0,6.4,2.9,6.4,6.4v12.4l44.6,14.9l23.5-7.8c3.3-1.1,6.9,0.7,8.1,4c1.1,3.3-0.7,6.9-4,8.1
	l-19.4,6.5l23.5,70.4c0.9,2.6,0,5.5-2.2,7.1c-8.5,6.3-18.7,9.8-29.3,9.8c-10.6,0-20.8-3.4-29.3-9.8c-2.2-1.6-3.1-4.5-2.2-7.1
	l23.5-70.4l-36.5-12.2v120.6h19.1c3.5,0,6.4,2.9,6.4,6.4s-2.9,6.4-6.4,6.4H99.8c-3.5,0-6.4-2.9-6.4-6.4s2.9-6.4,6.4-6.4h19.1V74.3
	L82.4,86.5l23.5,70.4c0.9,2.6,0,5.5-2.2,7.1c-8.5,6.3-18.7,9.8-29.3,9.8s-20.8-3.4-29.3-9.8c-2.2-1.6-3.1-4.5-2.2-7.1l23.5-70.4
	L46.8,80c-3.3-1.1-5.1-4.7-4-8.1c1.1-3.3,4.7-5.1,8.1-4l23.5,7.8l44.6-14.9V48.5C118.9,45,121.7,42.1,125.2,42.1z M74.3,102.6
	l-17.9,53.6c5.4,3.1,11.6,4.7,17.9,4.7c6.3,0,12.5-1.6,17.9-4.7L74.3,102.6z M176.2,102.6l-17.9,53.6c5.4,3.1,11.6,4.7,17.9,4.7
	c6.3,0,12.5-1.6,17.9-4.7L176.2,102.6z"/>
</svg>
