<svg width="705" height="631" viewBox="0 0 705 631" fill="none" xmlns="http://www.w3.org/2000/svg">
<g clip-path="url(#clip0_28_233)">
<g clip-path="url(#clip1_28_233)">
<path d="M261.472 38.5482C280.258 38.364 295.545 53.8325 295.36 72.6156L292.414 289.911L289.467 457.67L128.128 458.959L89.6346 459.327L7.67569 460.064L6.57063 330.607L4.54468 40.5738L261.472 38.5482Z" fill="#A5B4FC"/>
<path d="M13.5693 57.6989H285.599" stroke="white" stroke-width="2" stroke-miterlimit="10" stroke-linecap="round" stroke-linejoin="round"/>
<path d="M213.586 114.601C214.875 148.668 216.349 182.736 217.638 216.803C235.135 215.698 258.894 216.987 276.39 215.698" stroke="white" stroke-width="2" stroke-miterlimit="10" stroke-linecap="round" stroke-linejoin="round"/>
<path d="M22.2258 132.095C22.2258 147.563 22.2258 163.032 22.2258 178.5" stroke="white" stroke-width="2" stroke-miterlimit="10" stroke-linecap="round" stroke-linejoin="round"/>
<path d="M168.094 214.041C168.831 203.36 167.541 185.866 159.069 173.528C153.36 175.738 150.045 182.735 146.913 187.523C144.703 190.838 142.309 194.153 139.178 196.731C135.31 199.861 130.706 200.782 125.917 200.045C121.497 199.309 117.445 197.651 113.025 197.467C109.341 197.283 105.289 197.836 102.158 199.677C96.0806 203.36 95.528 212.015 96.4489 218.276C97.3698 223.801 97.554 229.325 92.7654 233.008C89.4502 235.586 85.3983 236.507 81.3464 237.428C87.6084 252.712 80.4255 254.922 77.4787 258.605C77.4787 258.605 76.742 258.973 75.2686 260.078C78.7679 270.943 87.0559 281.071 96.6331 287.148C99.3958 288.805 102.343 290.462 105.289 291.751C104 277.204 107.684 268.917 122.418 271.311C147.466 275.546 158.885 245.162 158.885 245.162C164.042 245.162 181.907 242.031 181.907 242.031C181.907 242.031 166.989 229.693 168.094 214.041Z" fill="white"/>
<path d="M83.5566 243.504C93.318 240.558 102.343 234.481 108.605 226.563C101.422 224.169 97.1857 214.777 100.869 207.596C105.842 197.836 119.84 201.335 127.391 206.122C139.546 202.992 149.86 193.969 157.228 184.025C158.701 181.999 160.174 179.789 161.648 177.579C157.596 169.845 151.518 163.584 142.125 160.822C76.7421 141.302 62.9288 204.649 77.4788 229.693C80.794 235.402 82.6357 239.821 83.5566 243.504Z" fill="black"/>
<path d="M63.6657 134.304C54.4568 136.698 46.9055 145.169 46.1688 154.745C44.1429 177.763 74.3479 185.498 88.7138 170.766C105.29 154.193 83.9252 129.148 63.6657 134.304Z" fill="black"/>
<path d="M83.5567 243.504C91.2921 223.985 86.8718 201.519 89.4503 180.71L91.8446 167.82C79.3206 193.6 51.1415 210.542 22.594 210.726C37.6965 223.616 50.2206 245.162 83.5567 243.504Z" fill="black"/>
<path d="M153.544 212.015C152.807 213.672 152.071 215.33 151.334 217.171" stroke="#020202" stroke-width="2" stroke-miterlimit="10" stroke-linecap="round" stroke-linejoin="round"/>
<path d="M129.417 242.215C128.68 245.714 129.97 249.765 132.548 252.343C135.126 254.922 138.994 256.211 142.678 255.474" stroke="#020202" stroke-width="2" stroke-miterlimit="10" stroke-linecap="round" stroke-linejoin="round"/>
<path d="M136.784 179.053C147.282 182.183 149.124 196.915 149.124 196.915L176.198 184.577C176.198 184.577 157.78 159.717 142.678 164.873C127.575 169.845 136.784 179.053 136.784 179.053Z" fill="black"/>
<path d="M292.414 289.91L292.23 304.457L290.388 408.87L289.467 457.669L128.128 458.958L190.932 411.816L212.481 299.485L292.414 289.91Z" fill="black"/>
<path d="M292.23 304.458L290.388 408.87L203.64 405.187L219.111 313.297L292.23 304.458Z" fill="#FFCF64"/>
<path d="M260.919 452.513L289.651 505.547V457.669L260.919 452.513Z" fill="black"/>
<path d="M228.32 318.453C225.741 332.448 223.163 346.443 220.584 360.439C238.45 360.254 256.131 360.07 273.996 359.886" stroke="white" stroke-width="2" stroke-miterlimit="10" stroke-linecap="round" stroke-linejoin="round"/>
<path d="M221.874 374.066C230.53 373.881 239.002 373.697 247.659 373.513" stroke="white" stroke-width="2" stroke-miterlimit="10" stroke-linecap="round" stroke-linejoin="round"/>
<path d="M257.42 373.145C261.472 372.961 265.708 372.777 269.76 372.592" stroke="white" stroke-width="2" stroke-miterlimit="10" stroke-linecap="round" stroke-linejoin="round"/>
<path d="M90.0031 396.347C147.835 364.122 162.385 360.439 174.172 370.751C182.276 377.748 190.748 383.825 186.696 385.114C182.644 386.403 178.961 385.114 172.146 381.431C163.306 376.828 167.358 392.296 142.494 403.713C117.63 415.131 79.3208 442.016 79.3208 442.016L90.0031 396.347Z" fill="white"/>
<path d="M143.414 392.849C148.387 388.982 153.36 385.114 158.333 381.247C159.622 380.142 161.095 379.222 162.753 379.222C164.411 379.222 166.252 380.695 165.7 382.168" stroke="#4F46E5" stroke-width="2" stroke-miterlimit="10" stroke-linecap="round" stroke-linejoin="round"/>
<path d="M167.91 372.776C173.988 375.539 179.881 378.117 185.959 380.879" stroke="#4F46E5" stroke-width="2" stroke-miterlimit="10" stroke-linecap="round" stroke-linejoin="round"/>
<path d="M103.448 383.825C103.448 383.825 94.9759 427.653 89.6347 459.142L7.67586 459.879L6.5708 330.422C29.593 291.935 69.0069 264.129 77.1107 258.605C80.9784 269.469 87.7929 279.045 97.7385 285.122C100.133 286.595 102.527 287.7 105.106 288.621C105.474 299.301 109.158 313.849 113.578 330.607C122.602 367.068 114.13 374.25 103.448 383.825Z" fill="#4F46E5"/>
<path d="M248.211 430.047C248.211 430.047 243.607 413.842 220.953 413.473C209.534 413.289 178.592 418.814 150.413 424.338C153.544 435.387 157.596 446.252 161.648 456.932C198.299 445.699 232.74 435.203 238.081 437.044C246.738 439.991 252.631 447.172 253.921 441.648C255.21 436.124 248.211 430.047 248.211 430.047Z" fill="white"/>
<path d="M161.832 422.128C129.417 428.205 96.8174 435.387 96.8174 435.387L92.5814 300.222L47.0896 310.534C47.0896 310.534 48.7472 342.944 51.8782 400.215C55.1934 457.485 50.589 487.685 98.1067 475.347C118.366 470.007 145.256 461.72 170.12 454.17C167.542 443.489 164.595 432.809 161.832 422.128Z" fill="#4F46E5"/>
<path d="M42.6694 343.129C45.9846 378.853 49.1156 414.762 52.4308 450.487" stroke="#020202" stroke-width="2" stroke-miterlimit="10" stroke-linecap="round" stroke-linejoin="round"/>
<path d="M81.1626 327.108C85.2145 361.359 89.2664 395.611 93.1341 429.862" stroke="#020202" stroke-width="2" stroke-miterlimit="10" stroke-linecap="round" stroke-linejoin="round"/>
<path d="M235.135 428.942C241.949 430.047 248.395 434.098 252.079 439.991" stroke="#4F46E5" stroke-width="2" stroke-miterlimit="10" stroke-linecap="round" stroke-linejoin="round"/>
<path d="M231.267 420.103C236.424 421.207 241.397 423.97 245.264 427.653" stroke="#4F46E5" stroke-width="2" stroke-miterlimit="10" stroke-linecap="round" stroke-linejoin="round"/>
</g>
<g clip-path="url(#clip2_28_233)">
<path d="M371.189 629.834L612.664 627.351L627.094 627.185L662.589 626.854L680.668 626.689L681 204L374.317 209.464L371.189 595.318V629.834Z" fill="#E0E7FF"/>
<path d="M357.272 487.269L357.456 501.817L359.298 606.229L360.219 655.028L521.558 656.317L458.754 609.175L437.205 496.845L357.272 487.269Z" fill="black"/>
<path d="M357.456 501.817L359.298 606.229L446.045 602.546L430.575 510.656L357.456 501.817Z" fill="#FFCF64"/>
<path d="M649.818 324.201C631.241 312.942 614.323 299.035 599.395 283.306C584.135 267.412 570.7 249.531 559.919 230.159C555.607 222.378 551.626 214.431 548.309 206.318L681 204L680.834 340.095C670.053 335.625 659.769 330.326 649.818 324.201Z" fill="#A5B4FC"/>
</g>
<path d="M538.5 565.024C536.625 582.456 524.621 609.738 517.684 628.106L681 626.46L680.782 448.489C675.157 445.115 642.563 436.447 636.75 434.011C624.938 428.762 612.563 424.826 599.813 422.577C593.813 423.327 587.625 424.264 581.625 425.764C568.5 451.254 543.938 473.371 535.875 500.736C528.375 526.226 540.938 543.283 538.5 565.024Z" fill="#4F46E5"/>
<path d="M594.562 526.789C595.312 537.66 604.875 547.406 615.75 548.156" stroke="#020202" stroke-width="2" stroke-miterlimit="10" stroke-linecap="round" stroke-linejoin="round"/>
<path d="M615.187 418.829C607.5 419.016 600 419.766 592.5 420.89C588.937 421.453 585.562 422.577 582.375 424.264C554.062 440.008 513.187 466.436 492.75 475.245C492.375 471.122 492.75 467.935 491.812 461.375C491.812 461.375 460.5 471.122 447 477.869C444.937 486.679 445.875 496.425 442.687 504.859C436.875 520.416 437.25 539.346 439.875 547.406C443.437 558.652 452.25 565.774 463.5 568.773C475.875 571.959 489.375 570.647 501 565.587C511.875 560.901 520.5 552.654 525.75 542.158C527.437 538.784 528.75 535.223 529.875 531.662C535.5 528.288 540.75 524.352 545.625 519.854C550.125 515.918 554.062 511.607 558 507.108C585.937 498.674 624.562 494.925 624.562 494.925L615.187 418.829Z" fill="#4F46E5"/>
<path d="M534.938 497.175C531.188 501.486 527.813 506.359 525.75 509.92C520.312 518.542 516.938 528.288 516.188 538.222C516.938 542.72 518.062 547.219 519.75 551.53C522 548.718 524.063 545.719 525.75 542.345C527.438 538.972 528.75 535.411 529.875 531.849C531.188 531.1 533.25 529.6 534.563 528.85C533.25 519.291 532.313 510.107 534.375 500.548C534.375 499.236 534.75 498.299 534.938 497.175Z" fill="#4338CA"/>
<path d="M484.313 477.307C488.813 436.822 495.937 383.967 495.937 383.967C495.937 383.967 499.875 356.977 496.313 356.977C492.75 356.977 487.875 381.155 487.875 381.155C487.875 381.155 492.75 356.977 489.187 358.664C486.375 359.976 483.938 372.346 483 378.156C483.938 372.346 485.25 360.35 480.937 362.974C477.562 365.224 464.625 437.009 454.875 485.929C465.75 485.179 475.125 482.18 484.313 477.307Z" fill="white"/>
<path d="M486 397.274C493.313 392.026 498.938 374.033 500.625 379.468C502.313 384.904 493.125 408.145 493.125 408.145" fill="white"/>
<path d="M493.125 387.715C488.437 391.651 485.062 397.274 484.125 403.459" stroke="#4F46E5" stroke-width="2" stroke-miterlimit="10" stroke-linecap="round" stroke-linejoin="round"/>
<path d="M484.313 366.91C483.938 371.409 483.562 375.907 483 380.218" stroke="#4F46E5" stroke-width="2" stroke-miterlimit="10" stroke-linecap="round" stroke-linejoin="round"/>
<path d="M490.875 366.161C490.313 369.909 489.75 373.658 489.188 377.407" stroke="#4F46E5" stroke-width="2" stroke-miterlimit="10" stroke-linecap="round" stroke-linejoin="round"/>
<path d="M690.375 303.559C686.438 313.868 687.375 325.863 692.625 335.61C690 330.549 675.937 327.925 670.875 327.175C665.25 326.238 656.625 327.363 654.375 320.428C649.313 305.058 681.563 301.497 690.375 303.559Z" fill="#8B5CF6"/>
<path d="M597.375 409.27C599.25 414.33 602.063 419.578 603 423.889C604.875 432.699 605.063 442.07 603 450.879C617.25 449.38 630 443.757 641.625 435.51C639.187 429.137 636 412.643 641.625 391.276C642.75 386.966 654 341.982 641.25 326.425C624.563 306.183 579.563 315.554 579.563 315.554C577.688 335.047 560.25 351.729 540.75 352.478C547.688 360.163 556.687 365.598 566.625 368.222C560.437 380.593 564.75 397.087 576.187 404.959C582.375 409.27 590.063 410.582 597.375 409.27Z" fill="white"/>
<path d="M545.062 316.492C564.75 323.801 584.25 331.111 603.938 338.421C609.75 329.612 618.938 323.052 629.063 320.24C624.375 327.737 623.063 337.296 625.688 345.731C626.438 348.355 627.75 350.979 628.688 353.603C635.625 372.158 632.438 394.275 620.25 410.019C648 413.581 677.063 405.521 699.188 388.278C691.125 390.902 683.063 384.341 678.563 377.032C672.938 367.473 670.688 356.414 668.625 345.543C666.563 334.672 664.313 323.614 658.688 314.055C650.438 300.185 636.938 295.312 621.563 294.562C603.375 293.625 586.875 293.438 569.813 300.747C565.125 302.809 560.625 305.058 556.313 307.87C554.813 308.62 545.625 316.867 545.062 316.492Z" fill="#8B5CF6"/>
<path d="M626.25 355.29C633 352.103 641.625 354.54 645.937 360.35C650.25 366.348 649.687 375.345 644.625 380.593C639.562 385.841 630.562 386.966 624.375 383.029" fill="white"/>
<path d="M570.188 338.234C572.812 339.171 575.625 340.108 578.25 341.045C575.25 345.918 576 353.041 579.937 357.164C583.875 361.475 590.812 362.6 595.875 359.788C600.937 357.164 603.937 350.791 602.812 345.169" stroke="#020202" stroke-width="2" stroke-miterlimit="10" stroke-linecap="round" stroke-linejoin="round"/>
<path d="M578.438 382.655C586.5 384.341 595.125 383.029 602.25 378.906C602.437 382.842 600.938 386.778 598.125 389.59C595.313 392.401 591.563 394.088 587.625 394.275" stroke="#020202" stroke-width="2" stroke-miterlimit="10" stroke-linecap="round" stroke-linejoin="round"/>
<path d="M595.125 349.479C594.937 353.041 590.437 355.665 587.062 353.978C583.875 352.291 583.125 347.23 585.75 344.794" stroke="#020202" stroke-width="2" stroke-miterlimit="10" stroke-linecap="round" stroke-linejoin="round"/>
<g clip-path="url(#clip3_28_233)">
<path d="M512.775 634.519C517.595 637.15 531.03 627.138 541.987 629.991C547.744 631.427 582.633 630.567 614.802 629.217L615.36 629.237L671.717 626.6L658.975 583.514C658.975 583.514 552.316 602.498 539.869 608.359C535.156 610.478 530.18 616.72 525.117 620.781C516.824 627.629 509.707 632.845 512.775 634.519Z" fill="white"/>
<path d="M532.349 621.601C525.503 623.978 519.473 628.507 515.564 634.62" stroke="#4F46E5" stroke-width="2" stroke-miterlimit="10" stroke-linecap="round" stroke-linejoin="round"/>
<path d="M656.932 579.789C650.372 571.231 643.813 562.673 637.253 554.115" stroke="#020202" stroke-width="2" stroke-miterlimit="10" stroke-linecap="round" stroke-linejoin="round"/>
</g>
<path d="M475.47 631L510.965 630.669L513.618 588.119L476.797 589.277L475.47 631Z" fill="#8B5CF6"/>
<path d="M506.154 597.225C507.979 594.741 515.609 595.569 518.428 596.894C521.082 598.218 522.907 601.198 523.57 604.178C524.731 609.145 523.238 614.775 519.589 618.583C515.94 622.391 510.467 624.046 505.325 623.218" stroke="#8B5CF6" stroke-width="2" stroke-miterlimit="10" stroke-linecap="round" stroke-linejoin="round"/>
<path d="M664.164 220.06C663.334 263.272 662.339 306.32 661.51 349.532" stroke="white" stroke-width="2" stroke-miterlimit="10" stroke-linecap="round" stroke-linejoin="round"/>
<g clip-path="url(#clip4_28_233)">
<path d="M571.673 27.1312C567.636 44.2312 571.265 63.0999 581.137 77.691C591.173 92.3127 607.511 102.328 624.96 104.56C632.257 105.579 640.352 105.048 646.296 100.544C652.239 96.0412 654.703 86.4692 649.775 80.9602C644.548 75.2257 634.173 77.0328 629.599 83.3212C624.86 89.579 625.107 98.2962 627.499 105.543C633.068 122.223 650.221 134.26 667.831 133.801" stroke="#A5B4FC" stroke-width="2" stroke-miterlimit="10" stroke-linecap="round" stroke-linejoin="round"/>
<path d="M504.648 101.184C511.669 103.683 518.854 106.212 525.875 108.71" stroke="#A5B4FC" stroke-width="2" stroke-miterlimit="10" stroke-linecap="round" stroke-linejoin="round"/>
<path d="M516.518 91.5374C523.538 94.0358 530.723 96.5649 537.744 99.0633" stroke="#A5B4FC" stroke-width="2" stroke-miterlimit="10" stroke-linecap="round" stroke-linejoin="round"/>
<path d="M579.505 123.125C576.828 126.536 574.284 130.143 571.607 133.554" stroke="white" stroke-width="2" stroke-miterlimit="10" stroke-linecap="round" stroke-linejoin="round"/>
</g>
<path d="M309.996 608.895C308.593 586.922 297.353 565.627 280.193 551.739C262.824 537.875 239.581 531.833 217.848 535.528C208.729 536.969 199.218 540.562 193.737 548.13C188.256 555.698 188.797 568.073 196.716 572.878C205.075 577.844 216.853 571.89 220.041 562.682C223.438 553.45 219.959 543.09 214.445 535.276C201.68 517.313 176.723 509.145 155.78 516.124" stroke="#A5B4FC" stroke-width="2" stroke-miterlimit="10" stroke-linecap="round" stroke-linejoin="round"/>
<path d="M48.6636 524.352C53.1997 520.138 57.7358 516.086 62.272 511.871" stroke="#A5B4FC" stroke-width="2" stroke-miterlimit="10" stroke-linecap="round" stroke-linejoin="round"/>
<path d="M55.1438 500.85C50.9317 504.578 46.8816 508.306 42.6694 512.034" stroke="#A5B4FC" stroke-width="2" stroke-miterlimit="10" stroke-linecap="round" stroke-linejoin="round"/>
<g clip-path="url(#clip5_28_233)">
<path d="M492.165 51.1943C492.165 57.9545 490.841 64.6807 488.26 70.9313C485.679 77.182 481.875 82.8891 477.087 87.679C472.298 92.4689 466.627 96.2736 460.344 98.8554C454.095 101.437 447.371 102.762 440.613 102.762H318.626C316.351 102.762 314.109 102.626 311.868 102.32L269.723 134.355C269.519 134.525 269.247 134.627 268.976 134.627C268.704 134.627 268.432 134.559 268.195 134.389C267.957 134.219 267.787 134.015 267.719 133.743C267.617 133.472 267.617 133.2 267.685 132.928L281.507 86.9316C274.511 79.6279 269.791 70.4558 267.957 60.5023C266.123 50.5489 267.278 40.2897 271.217 30.9817C275.191 21.6737 281.779 13.7245 290.235 8.15329C298.691 2.58208 308.506 -0.373383 318.626 -0.373383H440.613C447.371 -0.373383 454.095 0.951479 460.344 3.56723C466.593 6.14901 472.264 9.95374 477.053 14.7436C481.841 19.5335 485.645 25.2066 488.226 31.4912C490.841 37.7079 492.165 44.4341 492.165 51.1943Z" fill="#FEF3C7"/>
<path d="M329.494 89.4454H329.256C328.916 89.4114 328.577 89.3095 328.271 89.1397C327.966 88.9698 327.728 88.732 327.558 88.4263C326.811 87.3053 326.879 85.4708 327.286 84.1799C328.882 79.0504 331.328 74.2605 334.52 69.9462C335.709 68.3495 337.033 66.8548 338.493 65.496C338.425 63.118 338.086 60.7741 337.474 58.464C337.305 57.7846 337.067 57.0712 336.558 56.6976C336.048 56.3918 335.437 56.2559 334.86 56.2899C330.275 56.188 325.486 58.1923 321.377 61.8271C321.751 70.3538 318.728 78.6427 313.023 84.9613C312.479 85.6747 311.732 86.1842 310.849 86.422C310.476 86.49 310.068 86.49 309.661 86.422C309.287 86.3201 308.914 86.1503 308.608 85.9125C308.166 85.6067 307.827 85.1991 307.555 84.7235C307.283 84.2479 307.114 83.7383 307.046 83.2288C306.876 81.5302 307.623 80.0015 308.268 78.7446C310.985 73.2074 313.804 67.4663 318.083 62.8123C318.626 62.2348 319.17 61.6913 319.713 61.1477C319.645 60.2645 319.543 59.4152 319.407 58.5659C319.339 57.8526 319.102 57.1392 318.728 56.4937C317.506 54.7952 314.653 55.3727 313.023 55.8483C304.499 58.4301 296.925 63.4577 291.254 70.3199C291.118 70.4218 290.914 70.4897 290.745 70.4897C290.575 70.4897 290.371 70.4218 290.235 70.3199C290.099 70.2179 289.997 70.0481 289.964 69.8782C289.93 69.7084 289.964 69.5046 290.031 69.3347C295.907 62.2348 303.752 57.0033 312.547 54.3536C316.011 53.3005 318.66 53.7421 319.985 55.6105C320.528 56.4258 320.834 57.377 320.936 58.3282C321.004 58.8377 321.105 59.3473 321.139 59.8908C325.351 56.4598 330.173 54.6253 334.826 54.7272C335.742 54.6933 336.693 54.9311 337.474 55.4406C338.324 56.0861 338.697 57.0712 338.935 58.0564C339.478 60.0607 339.818 62.0649 339.954 64.1372C345.15 59.7889 351.976 56.8674 358.938 58.8717C359.107 58.9396 359.243 59.1095 359.311 59.2793C359.379 59.4492 359.413 59.653 359.345 59.8229C359.277 59.9927 359.175 60.1626 359.006 60.2645C358.836 60.3664 358.666 60.4004 358.462 60.4004C351.67 58.4301 344.98 61.6573 340.022 66.1754C340.089 74.1586 337.271 81.8699 332.041 87.9507C331.531 88.5962 330.648 89.4454 329.494 89.4454ZM338.493 67.6701C337.542 68.6553 336.625 69.7084 335.81 70.8294C332.72 74.9739 330.343 79.6279 328.815 84.5876C328.475 85.6747 328.509 86.9316 328.882 87.5091C328.95 87.611 329.018 87.6789 329.12 87.7469C329.222 87.8148 329.324 87.8488 329.426 87.8488C330.003 87.9167 330.614 87.2713 331.022 86.7957C335.539 81.5642 338.188 74.6681 338.493 67.6701ZM319.849 63.2539C319.679 63.4577 319.475 63.6616 319.306 63.8314C315.162 68.3495 312.412 73.9887 309.729 79.424C309.049 80.7829 308.574 81.9039 308.676 83.0589C308.71 83.3646 308.812 83.6704 308.948 83.9421C309.117 84.2139 309.321 84.4517 309.559 84.6216C309.695 84.7235 309.864 84.7914 310 84.8594C310.17 84.8933 310.34 84.8933 310.51 84.8933C311.053 84.6895 311.495 84.3498 311.834 83.9082C316.996 78.2011 319.815 70.8634 319.849 63.2539Z" fill="#A5B4FC"/>
<path d="M451.786 45.691C451.277 45.691 450.767 45.5891 450.292 45.3853C449.816 45.1815 449.409 44.8757 449.069 44.4681C446.964 42.0562 447.235 36.6888 447.982 34.6166C449.443 30.5401 452.635 25.5803 456.642 22.0134C456.439 21.1641 456.133 20.3828 455.725 19.6354C453.824 16.4761 449.612 15.525 446.488 16.0006C442.854 16.5441 439.594 18.6163 436.572 20.7225C435.145 21.7416 433.821 22.7607 432.632 23.7459C432.802 25.1727 432.87 26.4636 432.904 27.4147C433.108 33.3936 431.24 39.2706 427.606 43.9925C427.198 44.604 426.621 45.0796 425.976 45.3853C425.568 45.5552 425.093 45.6231 424.651 45.5891C424.21 45.5552 423.768 45.3853 423.395 45.1135C421.935 44.1284 421.221 41.8863 421.255 40.2557C421.425 34.2768 424.617 28.6377 430.934 23.1004C430.425 20.111 429.338 17.4613 426.791 16.2723C420.814 13.4527 411.61 17.3254 406.482 21.1981C406.584 21.9454 406.652 22.7268 406.686 23.5081C406.822 26.6334 405.871 38.795 401.456 42.4978C400.947 42.9734 400.302 43.2791 399.622 43.449C398.943 43.6188 398.23 43.6188 397.551 43.449C395.785 43.0413 394.664 42.0222 394.291 40.4256C392.932 34.6166 402.169 22.6249 404.716 20.5187C404.241 18.1067 403.256 16.3403 401.796 15.1853C399.69 13.5207 396.498 13.147 392.083 14.0642C388.483 14.8116 383.899 16.2383 379.721 18.99C379.721 19.5675 379.721 20.2129 379.721 20.7565C379.416 28.1961 377.684 33.8352 374.254 38.4553C372.42 40.9691 370.926 41.0031 369.975 40.6294C368.379 39.916 367.563 37.1983 368.141 34.1749C369.092 29.0453 370.892 25.1727 373.778 21.9794C375.069 20.5526 376.495 19.2957 378.091 18.2087C377.955 16.9178 377.582 15.7628 376.767 14.9475C375.918 14.1322 374.763 13.7245 373.065 13.5547C368.616 13.147 363.896 14.8455 359.549 18.2087C359.888 20.0091 359.922 21.8775 359.617 23.678C358.802 29.0793 356.832 34.2768 353.843 38.8629C352.553 40.8332 350.957 41.8523 349.564 41.6825C348.749 41.5806 347.697 41.0031 347.051 38.9648C345.625 34.5486 349.564 27.075 351.67 24.1535C353.436 21.7076 355.473 19.4995 357.749 17.5632C357.579 16.9517 357.273 16.3742 356.866 15.8647C356.458 15.3551 355.949 14.9475 355.372 14.6757C353.47 13.7585 350.957 14.336 347.798 16.3742C338.935 22.1493 331.769 30.0645 327.558 38.6591C327.456 38.8289 327.286 38.9309 327.116 38.9648C326.947 38.9988 326.743 38.9988 326.573 38.8969C326.403 38.8289 326.267 38.6591 326.199 38.4892C326.131 38.3194 326.098 38.1156 326.165 37.9457C330.478 29.0793 337.882 20.9603 346.949 15.0154C350.583 12.6374 353.674 12.026 356.085 13.2149C357.477 13.8944 358.53 15.0833 359.073 16.5101C362.809 13.6566 367.631 11.4145 373.201 11.8901C375.273 12.0599 376.835 12.6714 377.888 13.7245C378.804 14.6757 379.382 15.8647 379.586 17.1556C383.355 14.8795 387.498 13.2829 391.811 12.4336C396.736 11.4145 400.336 11.8901 402.815 13.8604C404.411 15.1173 405.498 16.9857 406.109 19.3976C411.746 15.525 421.153 11.8561 427.47 14.8455C430.391 16.2044 431.715 19.1259 432.293 21.9454C433.345 21.0962 434.432 20.2469 435.655 19.3976C438.847 17.1556 442.311 14.9814 446.25 14.4039C450.02 13.8264 454.808 14.9814 457.084 18.7862C457.457 19.4316 457.763 20.145 458.001 20.8584C459.155 19.9412 460.412 19.1598 461.702 18.5144C465.031 16.9178 470.566 14.2341 474.709 15.6948C476.407 16.3063 477.732 17.5632 478.615 19.4316C478.683 19.6015 478.785 19.7713 478.853 19.9412C486.358 15.525 495.493 15.1173 503.508 15.3211C503.712 15.3211 503.916 15.423 504.051 15.5589C504.187 15.6948 504.289 15.8986 504.289 16.1025C504.289 16.3063 504.187 16.5101 504.051 16.646C503.916 16.7819 503.712 16.8838 503.508 16.8838C495.629 16.68 486.596 17.0876 479.362 21.5038C479.77 23.5081 479.77 25.5463 479.43 27.5506C478.717 32.4424 476.849 37.1304 473.962 41.1729C473.215 42.226 472.026 43.6528 470.328 43.7207C468.63 43.7887 467.17 42.3959 466.695 40.9351C466.219 39.4744 466.423 37.9457 466.695 36.6548C468.121 30.1664 471.993 24.4933 477.494 20.7904C477.392 20.5526 477.324 20.3148 477.189 20.077C476.475 18.5823 475.49 17.6311 474.166 17.1556C470.668 15.8986 465.472 18.4125 462.382 19.9072C460.955 20.6206 459.597 21.5038 458.374 22.5229C458.544 23.5081 458.612 24.4933 458.714 25.5124C459.121 31.0496 459.325 44.0944 452.703 45.5212C452.431 45.6231 452.092 45.6571 451.786 45.691ZM456.982 23.8478C453.518 27.1769 450.767 31.4912 449.477 35.1261C448.831 36.9605 448.696 41.6145 450.292 43.415C450.563 43.7207 450.869 43.9246 451.277 44.0265C451.65 44.1284 452.058 44.1284 452.431 44.0265C458.103 42.8035 457.389 28.5358 457.186 25.6822C457.118 25.0708 457.05 24.4593 456.982 23.8478ZM431.172 25.0708C425.704 30.0645 422.987 35.0921 422.817 40.3576C422.784 41.7165 423.429 43.2791 424.278 43.8566C424.414 43.9585 424.617 44.0265 424.787 44.0604C424.957 44.0944 425.161 44.0604 425.331 43.9925C425.738 43.7547 426.078 43.449 426.349 43.0753C429.779 38.6251 431.511 33.1218 431.308 27.5167C431.308 26.6674 431.24 25.8521 431.172 25.0708ZM477.936 22.5229C473.011 26.0219 469.581 31.2195 468.291 37.0964C468.053 38.1835 467.849 39.4064 468.223 40.5275C468.495 41.3767 469.344 42.294 470.295 42.226C471.076 42.192 471.823 41.6145 472.706 40.3237C475.423 36.485 477.189 32.0687 477.868 27.4147C478.139 25.7841 478.139 24.1196 477.936 22.5229ZM405.056 22.489C402 25.6822 394.834 35.7036 395.887 40.0859C396.124 41.071 396.77 41.6825 397.958 41.9203C398.4 42.0222 398.875 42.0222 399.283 41.9203C399.724 41.8184 400.132 41.5806 400.471 41.2748C404.105 38.2854 405.294 27.2449 405.124 23.576C405.09 23.2024 405.056 22.8287 405.056 22.489ZM358.19 19.4316C356.255 21.1641 354.523 23.1005 352.994 25.2066C350.583 28.5698 347.493 35.1261 348.613 38.5911C348.783 39.1686 349.191 40.1198 349.836 40.1878C350.549 40.2897 351.67 39.4404 352.587 38.0476C355.44 33.6654 357.341 28.6717 358.122 23.4741C358.292 22.1493 358.326 20.7904 358.19 19.4316ZM378.193 20.179C377.039 21.0622 375.986 22.0474 375.001 23.1004C372.318 26.0559 370.654 29.6908 369.771 34.5146C369.329 36.9266 369.873 38.8969 370.688 39.2366C371.231 39.4744 372.114 38.8289 373.031 37.606C376.257 33.2238 377.888 27.8903 378.193 20.7904C378.193 20.5526 378.193 20.3488 378.193 20.179Z" fill="#4F46E5"/>
<path d="M422.987 86.5239C422.478 86.5239 422.003 86.3881 421.561 86.1503C421.12 85.9125 420.746 85.5728 420.44 85.1651C420.135 84.7575 419.897 84.3158 419.761 83.8063C419.388 82.3116 419.829 80.7829 420.372 79.3561C422.24 74.4643 424.991 69.9462 428.455 66.0395C428.082 64.9185 427.3 63.9673 426.248 63.3558C423.599 61.8611 420.101 63.4917 417.35 65.0884C410.863 68.8251 403.766 73.4112 401.287 80.613C401.185 80.7829 401.049 80.9188 400.879 80.9867C400.709 81.0546 400.505 81.0546 400.336 80.9867C400.166 80.9188 399.996 80.8168 399.894 80.647C399.792 80.4771 399.758 80.3073 399.792 80.1035C402.441 72.3921 409.845 67.6022 416.569 63.7295C419.693 61.9291 423.701 60.0947 427.029 61.997C428.149 62.6425 429.066 63.5936 429.61 64.7826C429.712 64.6467 429.847 64.5448 429.949 64.4089C431.749 62.5745 438.032 56.8334 444.145 59.653C446.998 60.9779 449.001 63.9673 449.714 67.874C452.703 64.8845 456.031 62.2008 459.631 59.9248C463.401 57.5129 466.423 56.9354 468.834 58.1923C471.076 59.3473 472.061 61.7932 472.502 63.6276L472.57 63.9334C474.166 61.8611 476.068 60.0267 478.173 58.4301C481.977 55.7124 486.324 54.6593 490.128 55.5765C490.297 55.6105 490.467 55.7124 490.603 55.8823C491.894 57.7167 492.777 59.8569 493.15 62.065C497.022 58.9396 501.437 56.5617 506.157 55.1009C506.361 55.067 506.531 55.1349 506.7 55.2368C506.87 55.3387 506.972 55.5086 507.04 55.6784C507.108 55.8483 507.074 56.0521 507.006 56.222C506.938 56.3918 506.802 56.5277 506.633 56.6296C501.742 58.1583 497.225 60.6382 493.354 63.9673C493.456 65.9376 493.286 67.9079 492.845 69.8443C491.622 75.0078 488.599 79.492 486.426 82.4135C486.12 82.8211 485.068 84.112 483.777 84.2479C483.505 84.2819 483.234 84.2479 482.962 84.18C482.69 84.112 482.453 83.9761 482.249 83.8063C481.739 83.3307 481.434 82.6852 481.4 82.0058C480.924 78.7107 482.419 75.5174 483.607 73.4112C485.747 69.6065 488.464 66.2094 491.724 63.3219C491.486 61.0798 490.739 58.9396 489.516 57.0712C486.222 56.3918 482.487 57.377 479.158 59.7549C476.713 61.5214 474.676 63.8314 472.978 66.1075C473.419 71.2371 471.619 76.3667 469.412 81.9379C469.072 82.8211 468.189 84.9273 466.321 85.2331C464.555 85.5048 463.095 83.9422 462.823 82.3116C462.586 80.8848 463.095 79.458 463.672 78.1671C465.472 74.0906 467.917 70.4557 470.023 67.4323C470.43 66.8548 470.872 66.2094 471.347 65.5979C471.279 65.0544 471.178 64.4769 471.042 63.9334C470.736 62.6764 469.989 60.4683 468.189 59.5511C466.321 58.5999 463.842 59.1435 460.582 61.2157C456.744 63.6616 453.212 66.5491 450.054 69.8443V70.0141C450.326 74.9739 449.035 79.8996 446.352 84.0441C445.877 84.7575 445.334 85.4708 444.451 85.7766C444.077 85.9125 443.703 85.9464 443.296 85.9125C442.922 85.8785 442.549 85.7426 442.209 85.5388C441.768 85.267 441.394 84.9273 441.088 84.4857C440.783 84.0441 440.613 83.5685 440.511 83.0589C440.273 81.4963 440.919 80.0355 441.632 78.7107C443.5 75.3136 445.741 72.1203 448.39 69.3007C448.152 67.0926 447.167 62.7104 443.568 61.0458C438.406 58.6679 432.768 63.8314 431.172 65.462C430.866 65.7678 430.595 66.0735 430.323 66.3792C430.73 68.0438 430.832 69.7763 430.663 71.4749C430.221 76.1628 428.591 80.647 425.942 84.5197C425.399 85.301 424.787 86.0823 423.836 86.3881C423.531 86.456 423.259 86.5239 422.987 86.5239ZM428.931 67.9079C425.942 71.5088 423.565 75.5514 421.867 79.9336C421.357 81.2924 421.052 82.4135 421.323 83.4326C421.391 83.7044 421.527 83.9761 421.697 84.2139C421.867 84.4517 422.104 84.6216 422.342 84.7914C422.478 84.8933 422.648 84.9273 422.818 84.9613C422.987 84.9953 423.157 84.9613 423.327 84.9273C423.802 84.7914 424.176 84.3158 424.618 83.7044C427.097 80.0355 428.625 75.7892 429.032 71.4069C429.134 70.184 429.1 69.029 428.931 67.9079ZM448.492 71.5768C446.386 74.0227 444.552 76.6724 443.024 79.492C442.413 80.613 441.904 81.768 442.073 82.8551C442.141 83.1269 442.243 83.3986 442.379 83.6364C442.549 83.8742 442.753 84.078 442.99 84.2139C443.126 84.3158 443.262 84.3498 443.432 84.3838C443.602 84.4178 443.737 84.3838 443.907 84.3498C444.383 84.078 444.756 83.7044 444.994 83.2288C447.235 79.7298 448.424 75.7212 448.492 71.5768ZM471.415 68.1797L471.279 68.3496C469.208 71.305 466.865 74.838 465.065 78.8126C464.623 79.7977 464.148 80.9527 464.352 82.0398C464.487 82.8891 465.268 83.7723 466.05 83.6364C466.933 83.5005 467.51 82.3455 467.883 81.3264C469.751 76.6724 471.279 72.3581 471.415 68.1797ZM491.826 65.3601C489.109 67.9419 486.8 70.8974 485 74.1586C483.302 77.182 482.69 79.5939 482.996 81.768C482.996 82.0738 483.132 82.3455 483.302 82.5833C483.336 82.6173 483.403 82.6513 483.437 82.6513C483.505 82.6513 483.539 82.6852 483.607 82.6513C484.049 82.5833 484.694 82.1077 485.203 81.4283C487.275 78.6087 490.196 74.3284 491.35 69.4366C491.622 68.1118 491.792 66.719 491.826 65.3601Z" fill="#FBBF24"/>
</g>
<g clip-path="url(#clip6_28_233)">
<path d="M533.699 149.654H374.177C370.405 149.654 366.667 150.378 363.193 151.826C359.72 153.275 356.544 155.382 353.864 158.016C351.184 160.683 349.067 163.81 347.645 167.3C346.189 170.757 345.461 174.477 345.461 178.23V239.73C345.461 247.302 348.472 254.578 353.864 259.944C359.256 265.31 366.568 268.306 374.177 268.306H498.765L529.233 311.534C529.399 311.731 529.597 311.896 529.862 311.994C530.127 312.093 530.391 312.093 530.623 311.994C530.887 311.929 531.086 311.764 531.251 311.534C531.417 311.336 531.483 311.073 531.483 310.809V268.339H533.633C537.405 268.339 541.143 267.615 544.617 266.166C548.09 264.718 551.266 262.611 553.946 259.977C556.626 257.31 558.743 254.182 560.165 250.693C561.621 247.236 562.349 243.516 562.349 239.762V178.23C562.349 170.658 559.338 163.382 553.946 158.016C548.62 152.649 541.308 149.654 533.699 149.654ZM487.715 252.602L488.277 253.359C488.112 253.294 487.98 253.195 487.88 253.063C487.781 252.931 487.715 252.767 487.715 252.602Z" fill="#FEF3C7"/>
<path d="M425.082 176.772C414.358 176.772 403.755 176.739 393.152 176.706C392.786 176.706 392.421 176.673 392.116 176.607C391.812 176.541 391.507 176.443 391.263 176.311C391.019 176.179 390.837 176.015 390.654 175.85C390.532 175.685 390.471 175.488 390.471 175.29C390.471 175.093 390.532 174.928 390.715 174.731C390.837 174.566 391.08 174.401 391.324 174.27C391.568 174.138 391.872 174.039 392.238 173.973C392.543 173.908 392.908 173.875 393.274 173.908C433.491 174.105 474.318 173.908 514.536 173.381C514.901 173.381 515.267 173.381 515.572 173.447C515.876 173.513 516.181 173.611 516.486 173.743C516.73 173.875 516.973 174.039 517.095 174.204C517.217 174.369 517.339 174.566 517.339 174.764C517.339 174.961 517.278 175.126 517.156 175.323C517.034 175.488 516.851 175.653 516.608 175.784C516.364 175.916 516.059 176.015 515.755 176.081C515.45 176.146 515.084 176.179 514.719 176.179C484.921 176.574 454.941 176.772 425.082 176.772Z" fill="#4F46E5"/>
<path d="M414.662 195.191C414.298 195.191 413.967 195.026 413.703 194.795C413.438 194.532 413.306 194.203 413.272 193.841C413.272 193.479 413.372 193.149 413.603 192.853C413.835 192.59 414.166 192.425 414.53 192.392C431.203 191.108 448.174 190.516 464.881 190.581C465.245 190.581 465.609 190.713 465.873 190.976C466.138 191.24 466.27 191.602 466.27 191.964C466.27 192.326 466.138 192.688 465.873 192.952C465.609 193.215 465.245 193.347 464.881 193.347C448.207 193.281 431.335 193.874 414.728 195.158L414.662 195.191Z" fill="#4F46E5"/>
<path d="M486.02 192.623C485.656 192.623 485.326 192.491 485.061 192.228C484.796 191.964 484.664 191.635 484.631 191.273C484.631 190.911 484.73 190.581 484.962 190.285C485.193 190.022 485.524 189.857 485.888 189.791C495.118 189.001 504.381 188.804 513.611 189.166C513.809 189.166 513.975 189.232 514.14 189.297C514.306 189.363 514.471 189.495 514.57 189.627C514.703 189.758 514.802 189.923 514.868 190.088C514.934 190.252 514.967 190.45 514.967 190.614C514.967 190.812 514.901 190.976 514.835 191.141C514.769 191.306 514.637 191.47 514.504 191.569C514.372 191.701 514.206 191.8 514.041 191.865C513.876 191.931 513.677 191.964 513.512 191.964C504.381 191.602 495.217 191.832 486.12 192.59L486.02 192.623Z" fill="#4F46E5"/>
<path d="M420.077 215.498C419.713 215.498 419.349 215.366 419.084 215.136C418.82 214.873 418.654 214.543 418.654 214.148C418.654 213.786 418.787 213.424 419.018 213.161C419.283 212.897 419.614 212.733 420.011 212.733C451.803 210.527 484.058 209.835 515.916 210.658C516.115 210.658 516.28 210.691 516.479 210.757C516.644 210.823 516.809 210.922 516.942 211.054C517.074 211.185 517.173 211.35 517.24 211.514C517.306 211.679 517.339 211.877 517.339 212.074C517.339 212.272 517.306 212.436 517.206 212.634C517.14 212.798 517.008 212.963 516.876 213.095C516.743 213.226 516.578 213.325 516.379 213.391C516.214 213.457 516.016 213.49 515.817 213.457C484.058 212.634 451.869 213.325 420.176 215.498H420.077Z" fill="#4F46E5"/>
<path d="M389.707 238.544C389.344 238.544 388.98 238.413 388.715 238.149C388.45 237.886 388.285 237.524 388.285 237.161C388.285 236.799 388.417 236.437 388.682 236.174C388.947 235.91 389.31 235.746 389.674 235.746L458.419 233.408C458.783 233.408 459.147 233.54 459.379 233.803C459.643 234.067 459.809 234.396 459.809 234.758C459.809 235.12 459.676 235.482 459.445 235.746C459.213 236.009 458.849 236.174 458.486 236.207L389.774 238.544H389.707Z" fill="#4F46E5"/>
<path d="M483.363 234.33C483 234.33 482.669 234.166 482.404 233.902C482.139 233.639 482.007 233.31 482.007 232.947C482.007 232.585 482.139 232.223 482.371 231.96C482.603 231.696 482.966 231.532 483.33 231.499C494.148 231.005 505.132 230.807 515.983 230.873C516.346 230.906 516.677 231.038 516.942 231.301C517.207 231.565 517.339 231.894 517.339 232.256C517.339 232.618 517.207 232.947 516.942 233.211C516.677 233.474 516.346 233.639 515.983 233.639C505.198 233.573 494.281 233.77 483.496 234.264H483.363V234.33Z" fill="#4F46E5"/>
</g>
</g>
<defs>
<clipPath id="clip0_28_233">
<rect width="705" height="631" fill="white"/>
</clipPath>
<clipPath id="clip1_28_233">
<rect width="291" height="467" fill="white" transform="translate(4.54468 38.5474)"/>
</clipPath>
<clipPath id="clip2_28_233">
<rect width="310" height="426" fill="white" transform="matrix(-1 0 0 1 681 204)"/>
</clipPath>
<clipPath id="clip3_28_233">
<rect width="155" height="78" fill="white" transform="matrix(-0.95952 0.281639 0.281639 0.95952 649.382 550.834)"/>
</clipPath>
<clipPath id="clip4_28_233">
<rect width="375" height="175" fill="white" transform="translate(336.062 -32.2441) rotate(10.5558)"/>
</clipPath>
<clipPath id="clip5_28_233">
<rect width="240" height="135" fill="white" transform="translate(267.074 -0.373383)"/>
</clipPath>
<clipPath id="clip6_28_233">
<rect width="246" height="195" fill="white" transform="translate(316.415 117.093)"/>
</clipPath>
</defs>
</svg>
