<svg width="23" height="23" viewBox="0 0 23 23" fill="none" xmlns="http://www.w3.org/2000/svg">
<path fill-rule="evenodd" clip-rule="evenodd" d="M11.7514 0.140045C12.2291 0.140045 12.6164 0.527318 12.6164 1.00504V2.68826L18.671 4.70658L21.8573 3.64443C22.3105 3.49336 22.8004 3.73828 22.9514 4.19149C23.1025 4.6447 22.8576 5.13457 22.4044 5.28564L19.7652 6.16541L22.9526 15.7248C23.0704 16.078 22.9488 16.467 22.6509 16.6904C21.5028 17.5512 20.1065 18.0165 18.6716 18.0165C17.2367 18.0165 15.8404 17.5512 14.6923 16.6904C14.3944 16.4671 14.2729 16.0781 14.3906 15.7248L17.5769 6.16544L12.6164 4.51185V20.9H15.2112C15.6889 20.9 16.0762 21.2873 16.0762 21.765C16.0762 22.2427 15.6889 22.63 15.2112 22.63H8.29161C7.81389 22.63 7.42662 22.2427 7.42662 21.765C7.42662 21.2873 7.81389 20.9 8.29161 20.9H10.8864V4.51185L5.92602 6.16541L9.11336 15.7248C9.23115 16.078 9.10961 16.467 8.81166 16.6904C7.66357 17.5512 6.26733 18.0165 4.83239 18.0165C3.39745 18.0165 2.0012 17.5512 0.853112 16.6904C0.555188 16.4671 0.433648 16.0781 0.551394 15.7248L3.73768 6.16544L1.09846 5.28564C0.64525 5.13457 0.400325 4.6447 0.551403 4.19149C0.702481 3.73828 1.19235 3.49336 1.64556 3.64443L4.83181 4.70658L10.8864 2.68826V1.00504C10.8864 0.527318 11.2737 0.140045 11.7514 0.140045ZM4.83181 8.35387L2.40252 15.6421C3.13968 16.0627 3.97673 16.2865 4.83239 16.2865C5.68767 16.2865 6.52436 16.0629 7.26129 15.6427L4.83181 8.35387ZM18.6712 8.35346L16.2417 15.6421C16.9789 16.0627 17.8159 16.2865 18.6716 16.2865C19.5272 16.2865 20.3643 16.0627 21.1014 15.6422L18.6712 8.35346Z" fill="#111827"/>
</svg>
