<svg width="180" height="24" viewBox="0 0 180 24" fill="none" xmlns="http://www.w3.org/2000/svg">
<path fill-rule="evenodd" clip-rule="evenodd" d="M75.331 11.1412H78.1163V6.84214H75.331V6.69077C75.331 5.8027 75.5328 5.18711 75.9365 4.84399C76.3402 4.50088 77.0365 4.35959 78.0255 4.42015V0.0302748C77.8438 0.0100918 77.5613 0 77.1778 0C74.8769 0 73.131 0.544949 71.9402 1.63485C70.7494 2.70456 70.154 4.27886 70.154 6.35774V6.84214H68.2769V11.1412H70.154V23.7356H75.331V11.1412ZM29.4063 15.2586C29.4063 13.5228 29.7292 11.999 30.3751 10.6871C31.0411 9.37515 31.9393 8.36598 33.0695 7.65956C34.1998 6.95315 35.4613 6.59994 36.8539 6.59994C37.964 6.59994 38.9732 6.83205 39.8814 7.29627C40.8098 7.76048 41.5364 8.38616 42.0612 9.17331V1.3321H47.2382V23.7356H42.0612V21.3136C41.5768 22.1209 40.8805 22.7668 39.9722 23.2512C39.0842 23.7356 38.0447 23.9778 36.8539 23.9778C35.4613 23.9778 34.1998 23.6246 33.0695 22.9181C31.9393 22.1915 31.0411 21.1723 30.3751 19.8604C29.7292 18.5283 29.4063 16.9943 29.4063 15.2586ZM42.0612 15.2889C42.0612 13.9971 41.6979 12.9779 40.9713 12.2311C40.2649 11.4843 39.397 11.1109 38.3677 11.1109C37.3383 11.1109 36.4603 11.4843 35.7337 12.2311C35.0273 12.9577 34.6741 13.9669 34.6741 15.2586C34.6741 16.5503 35.0273 17.5797 35.7337 18.3466C36.4603 19.0934 37.3383 19.4668 38.3677 19.4668C39.397 19.4668 40.2649 19.0934 40.9713 18.3466C41.6979 17.5998 42.0612 16.5806 42.0612 15.2889ZM66.9082 15.0164C66.9082 15.5008 66.8779 16.0054 66.8174 16.5301H55.101C55.1817 17.5797 55.5147 18.387 56.1 18.9521C56.7055 19.4971 57.4422 19.7695 58.3101 19.7695C59.6018 19.7695 60.5 19.2246 61.0046 18.1347H66.5146C66.232 19.2448 65.7174 20.2439 64.9706 21.1319C64.244 22.02 63.3257 22.7163 62.2156 23.2209C61.1055 23.7255 59.8642 23.9778 58.4917 23.9778C56.8367 23.9778 55.3633 23.6246 54.0716 22.9181C52.7799 22.2117 51.7707 21.2026 51.0441 19.8906C50.3175 18.5787 49.9542 17.0448 49.9542 15.2889C49.9542 13.5329 50.3074 11.999 51.0138 10.6871C51.7404 9.37515 52.7496 8.36598 54.0413 7.65956C55.3331 6.95315 56.8165 6.59994 58.4917 6.59994C60.1266 6.59994 61.5798 6.94306 62.8513 7.62929C64.1229 8.31552 65.1119 9.29441 65.8183 10.566C66.5449 11.8375 66.9082 13.321 66.9082 15.0164ZM61.6101 13.654C61.6101 12.7659 61.3073 12.0595 60.7018 11.5348C60.0963 11.01 59.3394 10.7476 58.4312 10.7476C57.5633 10.7476 56.8266 10.9999 56.2211 11.5045C55.6358 12.0091 55.2725 12.7256 55.1312 13.654H61.6101ZM88.2388 23.9778C86.5837 23.9778 85.0902 23.6246 83.7581 22.9181C82.4462 22.2117 81.4067 21.2026 80.6398 19.8906C79.893 18.5787 79.5196 17.0448 79.5196 15.2889C79.5196 13.5531 79.9031 12.0293 80.6701 10.7173C81.437 9.38524 82.4865 8.36598 83.8186 7.65956C85.1507 6.95315 86.6443 6.59994 88.2993 6.59994C89.9544 6.59994 91.4479 6.95315 92.78 7.65956C94.1121 8.36598 95.1617 9.38524 95.9286 10.7173C96.6956 12.0293 97.0791 13.5531 97.0791 15.2889C97.0791 17.0246 96.6855 18.5586 95.8983 19.8906C95.1314 21.2026 94.0718 22.2117 92.7195 22.9181C91.3874 23.6246 89.8938 23.9778 88.2388 23.9778ZM88.2388 19.4971C89.2278 19.4971 90.0654 19.1338 90.7516 18.4072C91.458 17.6806 91.8112 16.6411 91.8112 15.2889C91.8112 13.9366 91.4681 12.8971 90.7819 12.1705C90.1158 11.4439 89.2883 11.0806 88.2993 11.0806C87.2902 11.0806 86.4526 11.4439 85.7865 12.1705C85.1205 12.877 84.7874 13.9164 84.7874 15.2889C84.7874 16.6411 85.1104 17.6806 85.7562 18.4072C86.4223 19.1338 87.2498 19.4971 88.2388 19.4971ZM105.003 23.7356V1.3321H99.8256V23.7356H105.003ZM12.1096 2.05099C12.1096 1.57327 11.7224 1.18599 11.2446 1.18599C10.7669 1.18599 10.3796 1.57327 10.3796 2.05099V3.73421L4.32504 5.75253L1.13878 4.69038C0.685576 4.53931 0.195706 4.78423 0.0446281 5.23744C-0.10645 5.69065 0.138475 6.18052 0.591683 6.33159L3.23091 7.21138L0.044619 16.7708C-0.0731268 17.124 0.0484127 17.513 0.346337 17.7364C1.49443 18.5972 2.89068 19.0625 4.32561 19.0625C5.76055 19.0625 7.1568 18.5972 8.30489 17.7364C8.60284 17.513 8.72437 17.124 8.60658 16.7707L5.41925 7.21136L10.3796 5.5578V21.946H7.78484C7.30711 21.946 6.91984 22.3332 6.91984 22.811C6.91984 23.2887 7.30711 23.676 7.78484 23.676H14.7044C15.1822 23.676 15.5694 23.2887 15.5694 22.811C15.5694 22.3332 15.1822 21.946 14.7044 21.946H12.1096V5.5578L17.0701 7.21138L13.8838 16.7708C13.7661 17.124 13.8876 17.513 14.1855 17.7364C15.3336 18.5972 16.7299 19.0625 18.1648 19.0625C19.5998 19.0625 20.996 18.5972 22.1441 17.7364C22.4421 17.513 22.5636 17.124 22.4458 16.7707L19.2585 7.21136L21.8976 6.33159C22.3508 6.18052 22.5957 5.69065 22.4447 5.23744C22.2936 4.78423 21.8037 4.53931 21.3505 4.69038L18.1642 5.75253L12.1096 3.73421V2.05099ZM1.89575 16.6881L4.32504 9.39982L6.75451 16.6887C6.01758 17.1089 5.18089 17.3325 4.32561 17.3325C3.46996 17.3325 2.63291 17.1087 1.89575 16.6881ZM15.735 16.6881L18.1644 9.39941L20.5946 16.6881C19.8575 17.1087 19.0205 17.3325 18.1648 17.3325C17.3092 17.3325 16.4721 17.1087 15.735 16.6881ZM169.546 10.8222H171.616V4.06481H169.546V10.8222ZM169.073 3.60463L171.992 2.38152V0.770891L169.073 2.17565V3.60463ZM132.035 5.78442H133.15V4.06481H132.035V4.00426C132.035 3.64903 132.116 3.40279 132.278 3.26555C132.439 3.1283 132.718 3.07179 133.113 3.09601V1.34006C133.041 1.33199 132.928 1.32795 132.774 1.32795C131.854 1.32795 131.155 1.54593 130.679 1.98189C130.203 2.40978 129.965 3.03949 129.965 3.87105V4.06481H129.214V5.78442H129.965V10.8222H132.035V5.78442ZM113.666 7.43138C113.666 6.73708 113.795 6.12754 114.053 5.60277C114.319 5.07801 114.679 4.67434 115.131 4.39178C115.583 4.10921 116.088 3.96793 116.645 3.96793C117.089 3.96793 117.492 4.06077 117.856 4.24646C118.227 4.43214 118.518 4.68242 118.727 4.99727V1.86079H120.798V10.8222H118.727V9.85338C118.534 10.1763 118.255 10.4347 117.892 10.6284C117.537 10.8222 117.121 10.9191 116.645 10.9191C116.088 10.9191 115.583 10.7778 115.131 10.4952C114.679 10.2046 114.319 9.79687 114.053 9.2721C113.795 8.73926 113.666 8.12569 113.666 7.43138ZM118.727 7.44349C118.727 6.9268 118.582 6.5191 118.292 6.22038C118.009 5.92167 117.662 5.77231 117.25 5.77231C116.838 5.77231 116.487 5.92167 116.197 6.22038C115.914 6.51102 115.773 6.91469 115.773 7.43138C115.773 7.94807 115.914 8.35981 116.197 8.6666C116.487 8.96531 116.838 9.11467 117.25 9.11467C117.662 9.11467 118.009 8.96531 118.292 8.6666C118.582 8.36789 118.727 7.96019 118.727 7.44349ZM128.666 7.3345C128.666 7.52826 128.654 7.7301 128.63 7.94H123.943C123.976 8.35981 124.109 8.68275 124.343 8.9088C124.585 9.12678 124.88 9.23577 125.227 9.23577C125.744 9.23577 126.103 9.01779 126.305 8.58183H128.509C128.396 9.02586 128.19 9.42549 127.891 9.78072C127.601 10.1359 127.233 10.4145 126.789 10.6163C126.345 10.8181 125.849 10.9191 125.3 10.9191C124.638 10.9191 124.048 10.7778 123.532 10.4952C123.015 10.2126 122.611 9.80898 122.321 9.28421C122.03 8.75944 121.885 8.14587 121.885 7.44349C121.885 6.74111 122.026 6.12754 122.309 5.60277C122.599 5.07801 123.003 4.67434 123.52 4.39178C124.036 4.10921 124.63 3.96793 125.3 3.96793C125.954 3.96793 126.535 4.10517 127.044 4.37967C127.552 4.65416 127.948 5.04571 128.23 5.55433C128.521 6.06295 128.666 6.65634 128.666 7.3345ZM126.547 6.78955C126.547 6.43433 126.426 6.15176 126.184 5.94185C125.942 5.73195 125.639 5.62699 125.275 5.62699C124.928 5.62699 124.634 5.72791 124.391 5.92974C124.157 6.13158 124.012 6.41818 123.955 6.78955H126.547ZM140.492 7.3345C140.492 7.52826 140.48 7.7301 140.456 7.94H135.77C135.802 8.35981 135.935 8.68275 136.169 8.9088C136.411 9.12678 136.706 9.23577 137.053 9.23577C137.57 9.23577 137.929 9.01779 138.131 8.58183H140.335C140.222 9.02586 140.016 9.42549 139.717 9.78072C139.427 10.1359 139.059 10.4145 138.615 10.6163C138.171 10.8181 137.675 10.9191 137.126 10.9191C136.464 10.9191 135.874 10.7778 135.358 10.4952C134.841 10.2126 134.437 9.80898 134.147 9.28421C133.856 8.75944 133.711 8.14587 133.711 7.44349C133.711 6.74111 133.852 6.12754 134.135 5.60277C134.425 5.07801 134.829 4.67434 135.346 4.39178C135.862 4.10921 136.456 3.96793 137.126 3.96793C137.78 3.96793 138.361 4.10517 138.87 4.37967C139.378 4.65416 139.774 5.04571 140.056 5.55433C140.347 6.06295 140.492 6.65634 140.492 7.3345ZM138.373 6.78955C138.373 6.43433 138.252 6.15176 138.01 5.94185C137.768 5.73195 137.465 5.62699 137.102 5.62699C136.754 5.62699 136.46 5.72791 136.218 5.92974C135.983 6.13158 135.838 6.41818 135.782 6.78955H138.373ZM147.591 4.76719C147.123 4.25049 146.493 3.99215 145.702 3.99215C145.258 3.99215 144.859 4.08095 144.503 4.25857C144.148 4.42811 143.866 4.66223 143.656 4.96095V4.06481H141.585V10.8222H143.656V7.15285C143.656 6.70075 143.773 6.34956 144.007 6.09928C144.241 5.84901 144.556 5.72387 144.951 5.72387C145.347 5.72387 145.662 5.84901 145.896 6.09928C146.13 6.34956 146.247 6.70075 146.247 7.15285V10.8222H148.306V6.87432C148.306 5.97818 148.068 5.27581 147.591 4.76719ZM152.494 10.9191C151.905 10.9191 151.38 10.8181 150.92 10.6163C150.459 10.4145 150.096 10.14 149.83 9.79283C149.563 9.4376 149.414 9.04201 149.382 8.60605H151.428C151.452 8.84018 151.561 9.0299 151.755 9.17522C151.949 9.32054 152.187 9.3932 152.47 9.3932C152.728 9.3932 152.926 9.34476 153.063 9.24788C153.208 9.14293 153.281 9.00972 153.281 8.84825C153.281 8.65449 153.18 8.51321 152.978 8.4244C152.776 8.32752 152.45 8.22257 151.997 8.10954C151.513 7.99652 151.109 7.87945 150.786 7.75835C150.463 7.62918 150.185 7.43138 149.951 7.16496C149.717 6.89047 149.6 6.52313 149.6 6.06295C149.6 5.67544 149.705 5.32424 149.914 5.00939C150.132 4.68645 150.447 4.43214 150.859 4.24646C151.279 4.06077 151.775 3.96793 152.349 3.96793C153.196 3.96793 153.862 4.17783 154.347 4.59765C154.839 5.01746 155.122 5.57452 155.194 6.26882H153.281C153.249 6.0347 153.144 5.84901 152.966 5.71176C152.797 5.57452 152.571 5.5059 152.288 5.5059C152.046 5.5059 151.86 5.55433 151.731 5.65121C151.602 5.74002 151.537 5.86516 151.537 6.02662C151.537 6.22038 151.638 6.3657 151.84 6.46258C152.05 6.55946 152.373 6.65634 152.809 6.75322C153.309 6.8824 153.717 7.01157 154.032 7.14074C154.347 7.26184 154.621 7.46368 154.855 7.74624C155.098 8.02073 155.223 8.39211 155.231 8.86036C155.231 9.25595 155.118 9.61118 154.892 9.92604C154.674 10.2328 154.355 10.475 153.935 10.6526C153.523 10.8303 153.043 10.9191 152.494 10.9191ZM157.781 10.4952C158.314 10.7778 158.912 10.9191 159.574 10.9191C160.236 10.9191 160.833 10.7778 161.366 10.4952C161.907 10.2126 162.331 9.80898 162.637 9.28421C162.952 8.75137 163.11 8.1378 163.11 7.44349C163.11 6.74919 162.956 6.13965 162.65 5.61488C162.343 5.08205 161.923 4.67434 161.39 4.39178C160.857 4.10921 160.26 3.96793 159.598 3.96793C158.936 3.96793 158.338 4.10921 157.806 4.39178C157.273 4.67434 156.853 5.08205 156.546 5.61488C156.239 6.13965 156.086 6.74919 156.086 7.44349C156.086 8.14587 156.235 8.75944 156.534 9.28421C156.841 9.80898 157.257 10.2126 157.781 10.4952ZM160.579 8.69082C160.304 8.98146 159.969 9.12678 159.574 9.12678C159.178 9.12678 158.847 8.98146 158.581 8.69082C158.322 8.40018 158.193 7.9844 158.193 7.44349C158.193 6.89451 158.326 6.47873 158.593 6.19616C158.859 5.90552 159.194 5.7602 159.598 5.7602C159.993 5.7602 160.324 5.90552 160.591 6.19616C160.865 6.4868 161.003 6.90258 161.003 7.44349C161.003 7.9844 160.861 8.40018 160.579 8.69082ZM166.279 5.19104C166.521 4.81966 166.824 4.52902 167.187 4.31912C167.551 4.10114 167.954 3.99215 168.398 3.99215V6.18405H167.829C167.313 6.18405 166.925 6.29708 166.667 6.52313C166.408 6.74111 166.279 7.12863 166.279 7.68569V10.8222H164.208V4.06481H166.279V5.19104ZM172.867 7.43138C172.867 6.73708 172.996 6.12754 173.255 5.60277C173.521 5.07801 173.88 4.67434 174.333 4.39178C174.785 4.10921 175.289 3.96793 175.846 3.96793C176.323 3.96793 176.738 4.06481 177.094 4.25857C177.457 4.45233 177.735 4.70664 177.929 5.0215V4.06481H180V10.8222H177.929V9.86549C177.727 10.1803 177.445 10.4347 177.082 10.6284C176.726 10.8222 176.311 10.9191 175.834 10.9191C175.285 10.9191 174.785 10.7778 174.333 10.4952C173.88 10.2046 173.521 9.79687 173.255 9.2721C172.996 8.73926 172.867 8.12569 172.867 7.43138ZM177.929 7.44349C177.929 6.9268 177.784 6.5191 177.493 6.22038C177.211 5.92167 176.864 5.77231 176.452 5.77231C176.04 5.77231 175.689 5.92167 175.398 6.22038C175.116 6.51102 174.974 6.91469 174.974 7.43138C174.974 7.94807 175.116 8.35981 175.398 8.6666C175.689 8.96531 176.04 9.11467 176.452 9.11467C176.864 9.11467 177.211 8.96531 177.493 8.6666C177.784 8.36789 177.929 7.96019 177.929 7.44349ZM133.665 15.9609C133.899 16.1708 134.198 16.2758 134.561 16.2758C134.916 16.2758 135.207 16.1708 135.433 15.9609C135.667 15.743 135.784 15.4765 135.784 15.1617C135.784 14.8387 135.667 14.5723 135.433 14.3624C135.207 14.1444 134.916 14.0354 134.561 14.0354C134.198 14.0354 133.899 14.1444 133.665 14.3624C133.439 14.5723 133.326 14.8387 133.326 15.1617C133.326 15.4765 133.439 15.743 133.665 15.9609ZM133.519 23.7355H135.59V16.9782H133.519V23.7355ZM132.019 14.7742V23.7355H129.948V14.7742H132.019ZM115.361 23.4086C115.894 23.6911 116.491 23.8324 117.153 23.8324C117.815 23.8324 118.413 23.6911 118.945 23.4086C119.486 23.126 119.91 22.7223 120.217 22.1976C120.532 21.6647 120.689 21.0512 120.689 20.3569C120.689 19.6625 120.536 19.053 120.229 18.5282C119.922 17.9954 119.503 17.5877 118.97 17.3051C118.437 17.0226 117.839 16.8813 117.177 16.8813C116.515 16.8813 115.918 17.0226 115.385 17.3051C114.852 17.5877 114.432 17.9954 114.126 18.5282C113.819 19.053 113.666 19.6625 113.666 20.3569C113.666 21.0592 113.815 21.6728 114.114 22.1976C114.42 22.7223 114.836 23.126 115.361 23.4086ZM118.158 21.6042C117.884 21.8948 117.549 22.0401 117.153 22.0401C116.758 22.0401 116.427 21.8948 116.16 21.6042C115.902 21.3135 115.773 20.8978 115.773 20.3569C115.773 19.8079 115.906 19.3921 116.172 19.1095C116.439 18.8189 116.774 18.6736 117.177 18.6736C117.573 18.6736 117.904 18.8189 118.17 19.1095C118.445 19.4002 118.582 19.8159 118.582 20.3569C118.582 20.8978 118.441 21.3135 118.158 21.6042ZM127.794 17.6805C127.326 17.1639 126.696 16.9055 125.905 16.9055C125.461 16.9055 125.062 16.9943 124.706 17.1719C124.351 17.3415 124.069 17.5756 123.859 17.8743V16.9782H121.788V23.7355H123.859V20.0662C123.859 19.6141 123.976 19.2629 124.21 19.0126C124.444 18.7624 124.759 18.6372 125.154 18.6372C125.55 18.6372 125.865 18.7624 126.099 19.0126C126.333 19.2629 126.45 19.6141 126.45 20.0662V23.7355H128.509V19.7877C128.509 18.8915 128.271 18.1892 127.794 17.6805ZM141.208 16.9055C142 16.9055 142.629 17.1639 143.098 17.6805C143.574 18.1892 143.812 18.8915 143.812 19.7877V23.7355H141.753V20.0662C141.753 19.6141 141.636 19.2629 141.402 19.0126C141.168 18.7624 140.853 18.6372 140.458 18.6372C140.062 18.6372 139.747 18.7624 139.513 19.0126C139.279 19.2629 139.162 19.6141 139.162 20.0662V23.7355H137.091V16.9782H139.162V17.8743C139.372 17.5756 139.654 17.3415 140.009 17.1719C140.365 16.9943 140.764 16.9055 141.208 16.9055ZM151.585 20.8534C151.609 20.6435 151.621 20.4416 151.621 20.2479C151.621 19.5697 151.476 18.9763 151.185 18.4677C150.902 17.9591 150.507 17.5675 149.998 17.293C149.489 17.0185 148.908 16.8813 148.254 16.8813C147.584 16.8813 146.991 17.0226 146.474 17.3051C145.957 17.5877 145.554 17.9914 145.263 18.5161C144.981 19.0409 144.839 19.6545 144.839 20.3569C144.839 21.0592 144.985 21.6728 145.275 22.1976C145.566 22.7223 145.97 23.126 146.486 23.4086C147.003 23.6911 147.592 23.8324 148.254 23.8324C148.803 23.8324 149.3 23.7315 149.744 23.5297C150.188 23.3278 150.555 23.0493 150.846 22.6941C151.145 22.3389 151.35 21.9392 151.463 21.4952H149.259C149.058 21.9312 148.698 22.1491 148.182 22.1491C147.834 22.1491 147.54 22.0401 147.298 21.8222C147.063 21.5961 146.93 21.2732 146.898 20.8534H151.585ZM149.138 18.8552C149.381 19.0651 149.502 19.3477 149.502 19.7029H146.91C146.967 19.3315 147.112 19.0449 147.346 18.8431C147.588 18.6413 147.883 18.5404 148.23 18.5404C148.593 18.5404 148.896 18.6453 149.138 18.8552Z" fill="white"/>
</svg>
