<?xml version="1.0" encoding="utf-8"?>
<!-- Generator: Adobe Illustrator 24.1.2, SVG Export Plug-In . SVG Version: 6.00 Build 0)  -->
<svg version="1.1" id="Capa_1" xmlns="http://www.w3.org/2000/svg" xmlns:xlink="http://www.w3.org/1999/xlink" x="0px" y="0px"
	 viewBox="0 0 180 24" style="enable-background:new 0 0 180 24;" xml:space="preserve">
<style type="text/css">
	.st0{fill-rule:evenodd;clip-rule:evenodd;fill:#4F46E5;}
</style>
<path class="st0" d="M75.3,11.1h2.8V6.8h-2.8V6.7c0-0.9,0.2-1.5,0.6-1.8C76.3,4.5,77,4.4,78,4.4V0c-0.2,0-0.5,0-0.8,0
	c-2.3,0-4,0.5-5.2,1.6c-1.2,1.1-1.8,2.6-1.8,4.7v0.5h-1.9v4.3h1.9v12.6h5.2V11.1z M29.4,15.3c0-1.7,0.3-3.3,1-4.6
	c0.7-1.3,1.6-2.3,2.7-3c1.1-0.7,2.4-1.1,3.8-1.1c1.1,0,2.1,0.2,3,0.7c0.9,0.5,1.7,1.1,2.2,1.9V1.3h5.2v22.4h-5.2v-2.4
	c-0.5,0.8-1.2,1.5-2.1,1.9C39.1,23.7,38,24,36.9,24c-1.4,0-2.7-0.4-3.8-1.1c-1.1-0.7-2-1.7-2.7-3.1C29.7,18.5,29.4,17,29.4,15.3z
	 M42.1,15.3c0-1.3-0.4-2.3-1.1-3.1c-0.7-0.7-1.6-1.1-2.6-1.1c-1,0-1.9,0.4-2.6,1.1c-0.7,0.7-1.1,1.7-1.1,3s0.4,2.3,1.1,3.1
	c0.7,0.7,1.6,1.1,2.6,1.1c1,0,1.9-0.4,2.6-1.1C41.7,17.6,42.1,16.6,42.1,15.3z M66.9,15c0,0.5,0,1-0.1,1.5H55.1c0.1,1,0.4,1.9,1,2.4
	c0.6,0.5,1.3,0.8,2.2,0.8c1.3,0,2.2-0.5,2.7-1.6h5.5c-0.3,1.1-0.8,2.1-1.5,3c-0.7,0.9-1.6,1.6-2.8,2.1S59.9,24,58.5,24
	c-1.7,0-3.1-0.4-4.4-1.1c-1.3-0.7-2.3-1.7-3-3C50.3,18.6,50,17,50,15.3c0-1.8,0.4-3.3,1.1-4.6c0.7-1.3,1.7-2.3,3-3
	c1.3-0.7,2.8-1.1,4.5-1.1c1.6,0,3.1,0.3,4.4,1c1.3,0.7,2.3,1.7,3,2.9C66.5,11.8,66.9,13.3,66.9,15z M61.6,13.7
	c0-0.9-0.3-1.6-0.9-2.1c-0.6-0.5-1.4-0.8-2.3-0.8c-0.9,0-1.6,0.3-2.2,0.8c-0.6,0.5-0.9,1.2-1.1,2.1H61.6z M88.2,24
	c-1.7,0-3.1-0.4-4.5-1.1c-1.3-0.7-2.4-1.7-3.1-3c-0.7-1.3-1.1-2.8-1.1-4.6c0-1.7,0.4-3.3,1.2-4.6c0.8-1.3,1.8-2.4,3.1-3.1
	c1.3-0.7,2.8-1.1,4.5-1.1c1.7,0,3.1,0.4,4.5,1.1c1.3,0.7,2.4,1.7,3.1,3.1c0.8,1.3,1.2,2.8,1.2,4.6c0,1.7-0.4,3.3-1.2,4.6
	c-0.8,1.3-1.8,2.3-3.2,3C91.4,23.6,89.9,24,88.2,24z M88.2,19.5c1,0,1.8-0.4,2.5-1.1c0.7-0.7,1.1-1.8,1.1-3.1c0-1.4-0.3-2.4-1-3.1
	c-0.7-0.7-1.5-1.1-2.5-1.1c-1,0-1.8,0.4-2.5,1.1c-0.7,0.7-1,1.7-1,3.1c0,1.4,0.3,2.4,1,3.1C86.4,19.1,87.2,19.5,88.2,19.5z
	 M105,23.7V1.3h-5.2v22.4H105z M12.1,2.1c0-0.5-0.4-0.9-0.9-0.9c-0.5,0-0.9,0.4-0.9,0.9v1.7l-6.1,2L1.1,4.7C0.7,4.5,0.2,4.8,0,5.2
	c-0.2,0.5,0.1,0.9,0.5,1.1l2.6,0.9L0,16.8c-0.1,0.4,0,0.7,0.3,1c1.1,0.9,2.5,1.3,4,1.3c1.4,0,2.8-0.5,4-1.3c0.3-0.2,0.4-0.6,0.3-1
	L5.4,7.2l5-1.7v16.4H7.8c-0.5,0-0.9,0.4-0.9,0.9c0,0.5,0.4,0.9,0.9,0.9h6.9c0.5,0,0.9-0.4,0.9-0.9c0-0.5-0.4-0.9-0.9-0.9h-2.6V5.6
	l5,1.7l-3.2,9.6c-0.1,0.4,0,0.7,0.3,1c1.1,0.9,2.5,1.3,4,1.3c1.4,0,2.8-0.5,4-1.3c0.3-0.2,0.4-0.6,0.3-1l-3.2-9.6l2.6-0.9
	c0.5-0.2,0.7-0.6,0.5-1.1c-0.2-0.5-0.6-0.7-1.1-0.5l-3.2,1.1l-6.1-2V2.1z M1.9,16.7l2.4-7.3l2.4,7.3c-0.7,0.4-1.6,0.6-2.4,0.6
	C3.5,17.3,2.6,17.1,1.9,16.7z M15.7,16.7l2.4-7.3l2.4,7.3c-0.7,0.4-1.6,0.6-2.4,0.6C17.3,17.3,16.5,17.1,15.7,16.7z M169.5,10.8h2.1
	V4.1h-2.1V10.8z M169.1,3.6l2.9-1.2V0.8l-2.9,1.4V3.6z M132,5.8h1.1V4.1H132V4c0-0.4,0.1-0.6,0.2-0.7c0.2-0.1,0.4-0.2,0.8-0.2V1.3
	c-0.1,0-0.2,0-0.3,0c-0.9,0-1.6,0.2-2.1,0.7C130.2,2.4,130,3,130,3.9v0.2h-0.8v1.7h0.8v5h2.1V5.8z M113.7,7.4c0-0.7,0.1-1.3,0.4-1.8
	c0.3-0.5,0.6-0.9,1.1-1.2c0.5-0.3,1-0.4,1.5-0.4c0.4,0,0.8,0.1,1.2,0.3c0.4,0.2,0.7,0.4,0.9,0.8V1.9h2.1v9h-2.1v-1
	c-0.2,0.3-0.5,0.6-0.8,0.8c-0.4,0.2-0.8,0.3-1.2,0.3c-0.6,0-1.1-0.1-1.5-0.4c-0.5-0.3-0.8-0.7-1.1-1.2
	C113.8,8.7,113.7,8.1,113.7,7.4z M118.7,7.4c0-0.5-0.1-0.9-0.4-1.2c-0.3-0.3-0.6-0.4-1-0.4s-0.8,0.1-1.1,0.4
	c-0.3,0.3-0.4,0.7-0.4,1.2s0.1,0.9,0.4,1.2c0.3,0.3,0.6,0.4,1.1,0.4s0.8-0.1,1-0.4C118.6,8.4,118.7,8,118.7,7.4z M128.7,7.3
	c0,0.2,0,0.4,0,0.6h-4.7c0,0.4,0.2,0.7,0.4,1c0.2,0.2,0.5,0.3,0.9,0.3c0.5,0,0.9-0.2,1.1-0.7h2.2c-0.1,0.4-0.3,0.8-0.6,1.2
	c-0.3,0.4-0.7,0.6-1.1,0.8c-0.4,0.2-0.9,0.3-1.5,0.3c-0.7,0-1.3-0.1-1.8-0.4c-0.5-0.3-0.9-0.7-1.2-1.2c-0.3-0.5-0.4-1.1-0.4-1.8
	s0.1-1.3,0.4-1.8c0.3-0.5,0.7-0.9,1.2-1.2c0.5-0.3,1.1-0.4,1.8-0.4c0.7,0,1.2,0.1,1.7,0.4c0.5,0.3,0.9,0.7,1.2,1.2
	C128.5,6.1,128.7,6.7,128.7,7.3z M126.5,6.8c0-0.4-0.1-0.6-0.4-0.8c-0.2-0.2-0.5-0.3-0.9-0.3c-0.3,0-0.6,0.1-0.9,0.3
	c-0.2,0.2-0.4,0.5-0.4,0.9H126.5z M140.5,7.3c0,0.2,0,0.4,0,0.6h-4.7c0,0.4,0.2,0.7,0.4,1c0.2,0.2,0.5,0.3,0.9,0.3
	c0.5,0,0.9-0.2,1.1-0.7h2.2c-0.1,0.4-0.3,0.8-0.6,1.2c-0.3,0.4-0.7,0.6-1.1,0.8c-0.4,0.2-0.9,0.3-1.5,0.3c-0.7,0-1.3-0.1-1.8-0.4
	c-0.5-0.3-0.9-0.7-1.2-1.2c-0.3-0.5-0.4-1.1-0.4-1.8s0.1-1.3,0.4-1.8c0.3-0.5,0.7-0.9,1.2-1.2c0.5-0.3,1.1-0.4,1.8-0.4
	c0.7,0,1.2,0.1,1.7,0.4c0.5,0.3,0.9,0.7,1.2,1.2C140.3,6.1,140.5,6.7,140.5,7.3z M138.4,6.8c0-0.4-0.1-0.6-0.4-0.8
	c-0.2-0.2-0.5-0.3-0.9-0.3c-0.3,0-0.6,0.1-0.9,0.3c-0.2,0.2-0.4,0.5-0.4,0.9H138.4z M147.6,4.8c-0.5-0.5-1.1-0.8-1.9-0.8
	c-0.4,0-0.8,0.1-1.2,0.3c-0.4,0.2-0.6,0.4-0.8,0.7V4.1h-2.1v6.8h2.1V7.2c0-0.5,0.1-0.8,0.4-1.1c0.2-0.3,0.5-0.4,0.9-0.4
	c0.4,0,0.7,0.1,0.9,0.4c0.2,0.3,0.4,0.6,0.4,1.1v3.7h2.1V6.9C148.3,6,148.1,5.3,147.6,4.8z M152.5,10.9c-0.6,0-1.1-0.1-1.6-0.3
	c-0.5-0.2-0.8-0.5-1.1-0.8c-0.3-0.4-0.4-0.8-0.4-1.2h2c0,0.2,0.1,0.4,0.3,0.6c0.2,0.1,0.4,0.2,0.7,0.2c0.3,0,0.5,0,0.6-0.1
	c0.1-0.1,0.2-0.2,0.2-0.4c0-0.2-0.1-0.3-0.3-0.4c-0.2-0.1-0.5-0.2-1-0.3c-0.5-0.1-0.9-0.2-1.2-0.4c-0.3-0.1-0.6-0.3-0.8-0.6
	c-0.2-0.3-0.4-0.6-0.4-1.1c0-0.4,0.1-0.7,0.3-1.1c0.2-0.3,0.5-0.6,0.9-0.8c0.4-0.2,0.9-0.3,1.5-0.3c0.8,0,1.5,0.2,2,0.6
	c0.5,0.4,0.8,1,0.8,1.7h-1.9c0-0.2-0.1-0.4-0.3-0.6c-0.2-0.1-0.4-0.2-0.7-0.2c-0.2,0-0.4,0-0.6,0.1c-0.1,0.1-0.2,0.2-0.2,0.4
	c0,0.2,0.1,0.3,0.3,0.4c0.2,0.1,0.5,0.2,1,0.3c0.5,0.1,0.9,0.3,1.2,0.4c0.3,0.1,0.6,0.3,0.8,0.6c0.2,0.3,0.4,0.6,0.4,1.1
	c0,0.4-0.1,0.8-0.3,1.1c-0.2,0.3-0.5,0.5-1,0.7C153.5,10.8,153,10.9,152.5,10.9z M157.8,10.5c0.5,0.3,1.1,0.4,1.8,0.4
	c0.7,0,1.3-0.1,1.8-0.4c0.5-0.3,1-0.7,1.3-1.2c0.3-0.5,0.5-1.1,0.5-1.8c0-0.7-0.2-1.3-0.5-1.8c-0.3-0.5-0.7-0.9-1.3-1.2
	c-0.5-0.3-1.1-0.4-1.8-0.4c-0.7,0-1.3,0.1-1.8,0.4c-0.5,0.3-1,0.7-1.3,1.2c-0.3,0.5-0.5,1.1-0.5,1.8c0,0.7,0.1,1.3,0.4,1.8
	C156.8,9.8,157.3,10.2,157.8,10.5z M160.6,8.7c-0.3,0.3-0.6,0.4-1,0.4c-0.4,0-0.7-0.1-1-0.4c-0.3-0.3-0.4-0.7-0.4-1.2
	c0-0.5,0.1-1,0.4-1.2c0.3-0.3,0.6-0.4,1-0.4c0.4,0,0.7,0.1,1,0.4c0.3,0.3,0.4,0.7,0.4,1.2S160.9,8.4,160.6,8.7z M166.3,5.2
	c0.2-0.4,0.5-0.7,0.9-0.9c0.4-0.2,0.8-0.3,1.2-0.3v2.2h-0.6c-0.5,0-0.9,0.1-1.2,0.3c-0.3,0.2-0.4,0.6-0.4,1.2v3.1h-2.1V4.1h2.1V5.2z
	 M172.9,7.4c0-0.7,0.1-1.3,0.4-1.8c0.3-0.5,0.6-0.9,1.1-1.2c0.5-0.3,1-0.4,1.5-0.4c0.5,0,0.9,0.1,1.2,0.3c0.4,0.2,0.6,0.4,0.8,0.8
	v-1h2.1v6.8h-2.1v-1c-0.2,0.3-0.5,0.6-0.8,0.8c-0.4,0.2-0.8,0.3-1.2,0.3c-0.5,0-1-0.1-1.5-0.4c-0.5-0.3-0.8-0.7-1.1-1.2
	C173,8.7,172.9,8.1,172.9,7.4z M177.9,7.4c0-0.5-0.1-0.9-0.4-1.2c-0.3-0.3-0.6-0.4-1-0.4s-0.8,0.1-1.1,0.4c-0.3,0.3-0.4,0.7-0.4,1.2
	s0.1,0.9,0.4,1.2c0.3,0.3,0.6,0.4,1.1,0.4s0.8-0.1,1-0.4C177.8,8.4,177.9,8,177.9,7.4z M133.7,16c0.2,0.2,0.5,0.3,0.9,0.3
	c0.4,0,0.6-0.1,0.9-0.3c0.2-0.2,0.4-0.5,0.4-0.8c0-0.3-0.1-0.6-0.4-0.8c-0.2-0.2-0.5-0.3-0.9-0.3c-0.4,0-0.7,0.1-0.9,0.3
	c-0.2,0.2-0.3,0.5-0.3,0.8C133.3,15.5,133.4,15.7,133.7,16z M133.5,23.7h2.1V17h-2.1V23.7z M132,14.8v9h-2.1v-9H132z M115.4,23.4
	c0.5,0.3,1.1,0.4,1.8,0.4s1.3-0.1,1.8-0.4c0.5-0.3,1-0.7,1.3-1.2c0.3-0.5,0.5-1.1,0.5-1.8c0-0.7-0.2-1.3-0.5-1.8
	c-0.3-0.5-0.7-0.9-1.3-1.2c-0.5-0.3-1.1-0.4-1.8-0.4c-0.7,0-1.3,0.1-1.8,0.4c-0.5,0.3-1,0.7-1.3,1.2c-0.3,0.5-0.5,1.1-0.5,1.8
	c0,0.7,0.1,1.3,0.4,1.8C114.4,22.7,114.8,23.1,115.4,23.4z M118.2,21.6c-0.3,0.3-0.6,0.4-1,0.4c-0.4,0-0.7-0.1-1-0.4
	c-0.3-0.3-0.4-0.7-0.4-1.2c0-0.5,0.1-1,0.4-1.2c0.3-0.3,0.6-0.4,1-0.4c0.4,0,0.7,0.1,1,0.4c0.3,0.3,0.4,0.7,0.4,1.2
	C118.6,20.9,118.4,21.3,118.2,21.6z M127.8,17.7c-0.5-0.5-1.1-0.8-1.9-0.8c-0.4,0-0.8,0.1-1.2,0.3c-0.4,0.2-0.6,0.4-0.8,0.7V17h-2.1
	v6.8h2.1v-3.7c0-0.5,0.1-0.8,0.4-1.1c0.2-0.3,0.5-0.4,0.9-0.4c0.4,0,0.7,0.1,0.9,0.4c0.2,0.3,0.4,0.6,0.4,1.1v3.7h2.1v-3.9
	C128.5,18.9,128.3,18.2,127.8,17.7z M141.2,16.9c0.8,0,1.4,0.3,1.9,0.8c0.5,0.5,0.7,1.2,0.7,2.1v3.9h-2.1v-3.7
	c0-0.5-0.1-0.8-0.4-1.1c-0.2-0.3-0.5-0.4-0.9-0.4c-0.4,0-0.7,0.1-0.9,0.4c-0.2,0.3-0.4,0.6-0.4,1.1v3.7h-2.1V17h2.1v0.9
	c0.2-0.3,0.5-0.5,0.8-0.7C140.4,17,140.8,16.9,141.2,16.9z M151.6,20.9c0-0.2,0-0.4,0-0.6c0-0.7-0.1-1.3-0.4-1.8
	c-0.3-0.5-0.7-0.9-1.2-1.2s-1.1-0.4-1.7-0.4c-0.7,0-1.3,0.1-1.8,0.4c-0.5,0.3-0.9,0.7-1.2,1.2c-0.3,0.5-0.4,1.1-0.4,1.8
	c0,0.7,0.1,1.3,0.4,1.8c0.3,0.5,0.7,0.9,1.2,1.2c0.5,0.3,1.1,0.4,1.8,0.4c0.5,0,1-0.1,1.5-0.3c0.4-0.2,0.8-0.5,1.1-0.8
	c0.3-0.4,0.5-0.8,0.6-1.2h-2.2c-0.2,0.4-0.6,0.7-1.1,0.7c-0.3,0-0.6-0.1-0.9-0.3c-0.2-0.2-0.4-0.5-0.4-1H151.6z M149.1,18.9
	c0.2,0.2,0.4,0.5,0.4,0.8h-2.6c0.1-0.4,0.2-0.7,0.4-0.9c0.2-0.2,0.5-0.3,0.9-0.3C148.6,18.5,148.9,18.6,149.1,18.9z"/>
</svg>
