<svg width="241" height="241" viewBox="0 0 241 241" fill="none" xmlns="http://www.w3.org/2000/svg">
<g clip-path="url(#clip0_70_75)">
<rect width="240" height="240" transform="translate(0.0708008 0.400146)" fill="white"/>
<circle cx="115.336" cy="116.423" r="86.099" fill="#A5B4FC"/>
<path d="M25.0699 48.2646L119.93 47.9672C130.225 47.9672 138.522 56.1969 138.422 66.3106L138.222 89.0167C138.122 98.6346 130.725 106.468 121.129 107.162L20.6718 109.641L6.77768 128.21V66.3106C6.77768 56.3952 14.9742 48.3638 25.0699 48.2646Z" fill="#FEF3C7"/>
<path d="M127.527 76.1267C119.23 77.7132 110.034 72.458 107.435 64.4266C110.134 64.03 112.133 67.5004 110.934 69.88C109.834 72.2597 106.735 73.2513 104.037 72.7555C101.438 72.2597 99.1386 70.6733 96.9396 69.186C94.0408 71.8631 89.2428 72.1606 86.0442 69.7809C71.7502 72.1606 56.9565 71.6648 42.8624 68.0953" stroke="#A5B4FC" stroke-width="2" stroke-miterlimit="10" stroke-linecap="round" stroke-linejoin="round"/>
<path d="M35.1658 73.2513C29.6681 73.7471 23.9705 71.6648 20.1721 67.7979" stroke="#A5B4FC" stroke-width="2" stroke-miterlimit="10" stroke-linecap="round" stroke-linejoin="round"/>
<path d="M116.731 91.8922C102.637 94.8668 87.8434 94.8668 73.7494 91.7931C73.7494 95.1643 69.6511 97.3457 66.3525 96.7508C63.0539 96.1558 60.3551 93.7761 57.8561 91.4956C48.66 98.5355 34.466 98.3372 25.4698 91.099" stroke="#A5B4FC" stroke-width="2" stroke-miterlimit="10" stroke-linecap="round" stroke-linejoin="round"/>
<path d="M207.398 128.21H114.684C112.492 128.21 110.319 128.63 108.3 129.471C106.281 130.312 104.435 131.534 102.878 133.062C101.32 134.61 100.09 136.425 99.2632 138.45C98.4171 140.456 97.9941 142.614 97.9941 144.792V172.478C97.9941 176.872 99.7438 181.094 102.878 184.208C106.012 187.322 110.261 189.061 114.684 189.061H187.094L204.803 206.144C204.899 206.259 205.014 206.354 205.168 206.411C205.322 206.469 205.476 206.469 205.61 206.411C205.764 206.373 205.88 206.278 205.976 206.144C206.072 206.029 206.11 205.877 206.11 205.724V189.08H207.36C209.552 189.08 211.725 188.659 213.744 187.819C215.762 186.978 217.608 185.756 219.166 184.227C220.723 182.68 221.954 180.865 222.78 178.84C223.626 176.834 224.049 174.675 224.049 172.497V144.792C224.049 140.398 222.3 136.176 219.166 133.062C216.07 129.949 211.821 128.21 207.398 128.21ZM180.672 179.948L180.999 180.387C180.903 180.349 180.826 180.292 180.768 180.215C180.711 180.139 180.672 180.044 180.672 179.948Z" fill="#FEF3C7"/>
<path d="M144.27 143.946C138.036 143.946 131.874 143.927 125.712 143.908C125.499 143.908 125.287 143.889 125.11 143.85C124.932 143.812 124.755 143.755 124.614 143.679C124.472 143.602 124.366 143.507 124.26 143.411C124.189 143.316 124.153 143.201 124.153 143.086C124.153 142.972 124.189 142.876 124.295 142.762C124.366 142.666 124.507 142.57 124.649 142.494C124.791 142.418 124.968 142.36 125.18 142.322C125.357 142.284 125.57 142.265 125.782 142.284C149.157 142.399 172.886 142.284 196.26 141.978C196.472 141.978 196.685 141.978 196.862 142.016C197.039 142.055 197.216 142.112 197.393 142.188C197.535 142.265 197.677 142.36 197.747 142.456C197.818 142.551 197.889 142.666 197.889 142.781C197.889 142.895 197.854 142.991 197.783 143.105C197.712 143.201 197.606 143.296 197.464 143.373C197.322 143.449 197.145 143.507 196.968 143.545C196.791 143.583 196.579 143.602 196.366 143.602C179.048 143.831 161.623 143.946 144.27 143.946Z" fill="#A5B4FC"/>
<path d="M138.213 154.634C138.002 154.634 137.809 154.538 137.655 154.405C137.502 154.252 137.425 154.061 137.406 153.851C137.406 153.641 137.463 153.45 137.598 153.278C137.732 153.125 137.925 153.029 138.136 153.01C147.827 152.265 157.691 151.921 167.4 151.959C167.612 151.959 167.823 152.036 167.977 152.189C168.131 152.341 168.208 152.552 168.208 152.762C168.208 152.972 168.131 153.182 167.977 153.335C167.823 153.488 167.612 153.564 167.4 153.564C157.71 153.526 147.904 153.87 138.252 154.615L138.213 154.634Z" fill="#A5B4FC"/>
<path d="M179.687 153.144C179.475 153.144 179.283 153.067 179.129 152.915C178.976 152.762 178.899 152.571 178.879 152.36C178.879 152.15 178.937 151.959 179.072 151.787C179.206 151.635 179.399 151.539 179.61 151.501C184.975 151.042 190.358 150.928 195.723 151.138C195.838 151.138 195.934 151.176 196.03 151.214C196.126 151.252 196.223 151.329 196.28 151.405C196.357 151.482 196.415 151.577 196.453 151.673C196.492 151.768 196.511 151.883 196.511 151.978C196.511 152.093 196.473 152.189 196.434 152.284C196.396 152.38 196.319 152.475 196.242 152.532C196.165 152.609 196.069 152.666 195.973 152.704C195.876 152.743 195.761 152.762 195.665 152.762C190.358 152.552 185.032 152.685 179.745 153.125L179.687 153.144Z" fill="#A5B4FC"/>
<path d="M123.422 166.303C123.21 166.303 122.999 166.227 122.845 166.093C122.691 165.94 122.595 165.749 122.595 165.52C122.595 165.31 122.672 165.099 122.806 164.947C122.96 164.794 123.153 164.698 123.383 164.698C141.861 163.418 178.547 163.132 197.063 163.609C197.178 163.609 197.274 163.628 197.39 163.667C197.486 163.705 197.582 163.762 197.659 163.839C197.736 163.915 197.794 164.01 197.832 164.106C197.87 164.202 197.89 164.316 197.89 164.431C197.89 164.545 197.87 164.641 197.813 164.756C197.774 164.851 197.697 164.947 197.621 165.023C197.544 165.099 197.447 165.157 197.332 165.195C197.236 165.233 197.121 165.252 197.005 165.233C178.547 164.756 141.899 165.042 123.479 166.303H123.422Z" fill="#A5B4FC"/>
<path d="M213.623 54.5775C216.557 61.8019 218.486 66.6 225.126 70.1606C231.766 73.7213 238.525 79.9381 237.476 87.9851C236.775 93.059 233.059 97.3405 228.633 99.6075C224.207 101.874 219.385 102.497 214.59 102.757C200.203 103.536 191.656 100.158 178.07 95.9014C172.464 94.108 166.927 91.8434 162.864 87.5389C157.658 82.0464 155.582 73.7863 155.468 65.7868C155.256 56.2585 157.498 46.3107 162.677 38.244C167.856 30.1773 176.114 23.922 185.117 22.5539C193.014 21.3798 203.013 24.2498 207.451 31.4342C211.616 38.1401 210.59 47.3145 213.623 54.5775Z" fill="#8B5CF6"/>
<path d="M210.762 44.2007C210.926 37.6152 207.245 31.308 202.173 28.0617C196.855 24.537 191.292 25.0008 185.402 24.7225C180.084 24.4443 174.931 22.5892 169.613 22.4965C164.95 22.4037 160.123 23.424 156.278 26.3921C152.352 29.2674 149.407 34.1834 149.325 39.4703C149.243 47.0761 154.642 53.2905 160.205 57.5572C170.84 65.7195 183.602 70.2644 196.446 70.6354L200.046 57.5572C205.854 57.1862 210.517 50.7862 210.762 44.2007Z" fill="#8B5CF6"/>
<path d="M153.273 34.2861C159.487 33.3585 164.478 34.8327 170.321 32.3284C170.414 39.1921 184.327 48.6529 190.82 47.3544C194.623 48.0964 197.962 52.5486 195.457 56.537C192.582 60.9891 185.347 60.3398 183.4 58.9485C185.016 60.8267 188.334 60.4557 188.148 60.8267C185.458 65.5571 192.118 70.2644 192.118 70.2644C190.262 80.2284 178.825 87.4257 171.419 91.1124C169.619 92.0082 167.773 89.7539 168.524 87.8895C170.061 84.0755 170.466 79.5283 165.034 77.6847C155.281 75.6075 137.204 62.7901 153.273 34.2861Z" fill="white"/>
<path d="M169.95 60.9891C169.95 64.05 168.281 65.7196 166.982 66.0906C164.756 66.7398 163.272 63.8645 163.272 62.0094" stroke="#020202" stroke-miterlimit="10" stroke-linecap="round" stroke-linejoin="round"/>
<path d="M175.237 48.7457C175.144 49.6733 175.052 50.6935 174.959 51.6211" stroke="#020202" stroke-miterlimit="10" stroke-linecap="round" stroke-linejoin="round"/>
<path d="M156.687 44.5717C156.594 45.4992 156.501 46.5195 156.408 47.447" stroke="#020202" stroke-miterlimit="10" stroke-linecap="round" stroke-linejoin="round"/>
<path d="M162.437 39.8413C162.437 43.7369 160.582 47.6326 157.522 50.1369C156.872 50.6934 156.13 51.25 156.13 52.0847C156.13 53.0123 157.151 53.476 157.893 53.847C159.655 54.6818 161.51 55.4239 163.272 56.2586" stroke="#020202" stroke-miterlimit="10" stroke-linecap="round" stroke-linejoin="round"/>
<path d="M147.004 31.4066C155.73 38.6952 164.109 39.7274 175.214 41.1847C184.057 42.3991 196.108 39.5031 196.027 38.6122C197.796 26.0992 185.475 16.219 173.665 16.8473C161.189 17.5364 153.36 24.9878 147.004 31.4066Z" fill="#8B5CF6"/>
<path d="M45.3768 200.497C43.6113 188.694 35.0293 178.91 30.3608 167.944L27.8607 160.924C29.0581 177.171 20.0376 193.539 6.05566 201.773C17.1576 203.802 29.4609 210.821 45.3768 200.497Z" fill="black"/>
<path d="M82.7228 165.403C82.7228 165.403 73.1255 166.096 70.3552 161.446C68.3764 158.181 62.341 151.156 53.8321 149.672C53.0406 157.29 51.1607 165.205 45.5211 170.746C45.0264 171.241 44.2348 171.043 43.938 170.548C43.4433 169.856 42.6518 168.965 41.6624 169.163C40.7719 169.361 40.1783 170.251 39.6836 170.944C38.4963 172.824 37.7048 175.099 37.5069 177.276C37.309 179.552 38.0016 181.333 39.4857 183.114C40.7719 184.697 42.6518 186.181 43.1465 188.259C43.5423 189.842 43.0475 191.425 42.256 192.711C43.1465 193.403 43.8391 194.096 44.037 194.789C45.8179 203.298 36.3196 205.078 36.3196 205.078L53.9732 232.127C55.9378 235.137 60.5335 234.225 61.1584 230.685C62.4132 223.577 63.963 214.148 64.5177 208.047C57.1961 196.273 65.2103 194.69 72.7298 190.732C80.2493 186.675 75.1043 174.11 75.1043 174.11C76.3906 173.22 82.7228 165.403 82.7228 165.403Z" fill="#E0E7FF"/>
<path d="M44.1362 199.241C45.1256 197.064 45.4224 186.577 45.4224 184.202C43.3447 183.905 41.168 183.311 39.7828 181.827C35.5283 177.375 41.9595 169.559 46.7086 173.22C50.6663 170.152 53.9313 166.195 55.9101 161.545C57.2953 158.181 57.9879 154.619 58.0868 150.958C53.4366 149.078 47.8959 148.484 41.7616 151.354C41.7616 151.354 24.9417 157.191 28.3057 174.605C30.7792 187.467 38.6944 199.142 41.8605 201.912C42.751 201.418 43.8394 199.835 44.1362 199.241Z" fill="black"/>
<path d="M62.8357 162.93C63.1325 164.216 63.0336 164.117 63.2315 165.403" stroke="#020202" stroke-miterlimit="10" stroke-linecap="round" stroke-linejoin="round"/>
<path d="M67.7829 178.167C67.3872 179.057 67.8819 180.145 68.7724 180.541C69.6628 180.937 70.7512 180.442 71.1469 179.552" stroke="#020202" stroke-miterlimit="10" stroke-linecap="round" stroke-linejoin="round"/>
<path d="M11.1313 156.246C7.64505 159.696 6.46988 165.426 8.61867 169.886C13.6703 180.672 29.1374 176.306 31.731 166.022C34.8335 154.345 18.8297 148.706 11.1313 156.246Z" fill="black"/>
<path d="M49.6961 158.371C55.3623 157.009 60.1431 163.295 60.1431 163.295L69.3063 150.39C69.3063 150.39 54.1944 143.869 48.6221 150.273C43.0006 156.593 49.6961 158.371 49.6961 158.371Z" fill="black"/>
<path d="M142.201 232.491C140.901 227.891 141.901 222.591 144.901 218.891C147.901 215.091 152.801 212.891 157.601 213.091C161.101 213.291 164.801 214.991 165.901 218.291C166.901 221.591 163.501 225.791 160.301 224.391C158.401 223.491 157.501 220.991 158.101 218.991C158.701 216.991 160.301 215.391 162.201 214.391C168.501 210.891 177.501 213.991 180.401 220.491" stroke="#A5B4FC" stroke-miterlimit="10" stroke-linecap="round" stroke-linejoin="round"/>
</g>
<defs>
<clipPath id="clip0_70_75">
<rect width="240" height="240" fill="white" transform="translate(0.0708008 0.400146)"/>
</clipPath>
</defs>
</svg>
