<svg width="241" height="241" viewBox="0 0 241 241" fill="none" xmlns="http://www.w3.org/2000/svg">
<rect width="240" height="240" transform="translate(0.213867 0.400146)" fill="white"/>
<circle cx="115.388" cy="122.531" r="99.432" fill="#E0E7FF"/>
<path d="M100.995 129.186C115.36 140.211 132.597 146.35 149.945 146.851C165.032 119.901 166.99 79.7197 131.904 78.0621C114.42 77.1472 86.7208 77.518 86.2994 104.757C86.1889 115.03 93.4816 123.424 100.995 129.186Z" fill="black"/>
<path d="M91.6324 97.7548C99.1079 90.9608 105.714 92.1402 114.659 95.1106C133.242 98.8762 135.58 127.808 142.346 115.406C147.482 116.408 151.992 122.421 148.61 127.808C144.726 133.822 134.954 132.945 132.323 131.066C134.507 133.602 138.988 133.101 138.737 133.602C135.104 139.992 144.1 146.35 144.1 146.35C141.4 160.839 123.7 170.997 113.945 175.569C112.125 176.423 110.314 174.181 111.218 172.386C113.968 166.924 115.952 159.235 107.518 156.372C94.3452 153.566 69.9283 136.254 91.6324 97.7548Z" fill="white"/>
<path d="M116.76 117.191C116.634 118.444 116.509 119.822 116.384 121.074" stroke="#020202" stroke-miterlimit="10" stroke-linecap="round" stroke-linejoin="round"/>
<path d="M94.0974 108.722C93.9721 109.975 93.8469 111.353 93.7216 112.606" stroke="#020202" stroke-miterlimit="10" stroke-linecap="round" stroke-linejoin="round"/>
<path d="M107.883 107.759C106.347 112.791 102.415 117.093 97.474 119.122C93.8547 119.155 93.3782 120.761 96.491 124.061C98.4386 125.834 100.543 127.524 102.49 129.297" stroke="#020202" stroke-miterlimit="10" stroke-linecap="round" stroke-linejoin="round"/>
<path d="M140.469 72.6257C137.763 78.9647 139.888 87.9429 145.937 93.9011C160.359 108.361 179.644 96.6225 176.524 80.3456C173.207 61.8113 146.498 58.7441 140.469 72.6257Z" fill="black"/>
<path d="M144.094 146.357C147.389 133.191 154.458 120.856 160.2 108.623C160.2 124.285 168.549 142.128 180.942 151.145C170.32 152.039 158.114 157.515 144.094 146.357Z" fill="black"/>
<path d="M137.476 94.3179C127.322 97.3457 125.541 111.594 125.541 111.594L83.137 94.3178C83.137 94.3178 103.968 71.7754 118.575 76.7624C133.182 81.5713 137.476 94.3179 137.476 94.3179Z" fill="black"/>
<path d="M91.9473 131.73C93.0431 131.561 96.1451 132.084 99.7865 135.523" stroke="black" stroke-linecap="round"/>
<ellipse cx="192.427" cy="191.98" rx="27" ry="26.5" fill="#E1FFE0"/>
<path d="M208.739 184.067L188.114 204.31C187.739 204.678 187.364 204.862 186.802 204.862C186.239 204.862 185.864 204.678 185.489 204.31L176.114 195.108C175.364 194.372 175.364 193.268 176.114 192.532C176.864 191.796 177.989 191.796 178.739 192.532L186.802 200.445L206.114 181.49C206.864 180.754 207.989 180.754 208.739 181.49C209.489 182.226 209.489 183.33 208.739 184.067Z" fill="#38CA47"/>
<circle cx="45.4804" cy="48.6564" r="37.6564" fill="#E4D9FF"/>
<path fill-rule="evenodd" clip-rule="evenodd" d="M19.7838 45.9687C19.8937 46.024 20.0035 46.0792 20.1133 46.1896C20.3329 46.4106 20.7722 46.4106 20.9918 46.4106H34.1696C35.4874 46.4106 36.3659 45.5269 36.3659 44.2014C36.3659 42.876 35.4874 41.9923 34.1696 41.9923H26.4826L32.8519 36.2486C34.6089 34.2604 37.0248 32.9349 39.4408 32.0513C43.8334 30.5049 48.6652 30.7258 52.8382 32.714C57.0112 34.9231 60.3057 38.4577 61.8431 42.876C62.2823 43.9805 63.6001 44.6433 64.6983 44.2014C65.7964 43.7596 66.4553 42.4341 66.0161 41.3296C64.0394 35.8068 60.086 31.3885 54.8149 28.7376C49.5438 26.3075 43.6137 25.8657 38.123 27.8539C35.0482 28.9585 32.193 30.7258 29.9967 32.9349L23.4077 39.1205V30.9467C23.4077 29.6212 22.5292 28.7376 21.2114 28.7376C19.8937 28.7376 19.0151 29.6212 19.0151 30.9467V44.4223V44.6433V45.0851C19.0151 45.1955 19.07 45.2508 19.125 45.306C19.1799 45.3612 19.2348 45.4165 19.2348 45.5269C19.4544 45.5269 19.4544 45.7478 19.4544 45.7478C19.5642 45.8583 19.674 45.9135 19.7838 45.9687ZM71.5068 52.1543V52.5961C71.5068 52.6729 71.5068 52.7231 71.5253 52.765C71.5599 52.8437 71.6596 52.8939 71.9461 53.0379V66.2927C71.9461 67.6182 71.0676 68.5018 69.7498 68.5018C68.432 68.5018 67.5535 67.6182 67.5535 66.2927V58.1189L60.9646 64.3045C56.7916 68.5018 51.3008 70.7109 45.5904 70.7109C39.88 70.7109 34.3893 68.7227 29.9967 64.3045C27.5807 62.0953 25.8237 59.2235 24.7255 56.1307C24.2863 55.0261 24.9452 53.7007 26.0433 53.2589C27.1415 52.817 28.4592 53.4798 28.8985 54.5843C29.777 57.0144 31.3144 59.4444 33.0715 61.2117C39.88 68.06 51.0812 68.06 57.8897 61.2117L64.0394 55.2471H56.3523C55.0345 55.2471 54.156 54.3634 54.156 53.0379C54.156 51.7125 55.0345 50.8288 56.3523 50.8288H69.5301H69.9694H70.4087L70.6283 51.0497L71.0676 51.4916C71.2872 51.4916 71.2872 51.7125 71.2872 51.7125C71.2872 51.8229 71.3421 51.8781 71.397 51.9334C71.4519 51.9886 71.5068 52.0438 71.5068 52.1543Z" fill="#8B5CF6"/>
<path d="M65.5393 163.327C65.097 172.43 73.9313 181.496 78.0356 183.807C87.5198 184.829 93.7371 177.26 94.0006 168.34C94.3969 154.93 84.3073 148.583 81.0637 148.611C81.1415 144.516 88.8086 137.194 83.8102 137.436C78.8118 137.677 66.0923 151.947 65.5393 163.327Z" fill="white"/>
<path d="M188.426 11C185.426 20.1 189.326 31 197.526 36C200.026 37.5 203.126 38.5 205.826 37.4C208.526 36.3 210.026 32.4 207.926 30.4C206.426 29 203.926 29.2 202.326 30.4C200.726 31.7 199.926 33.7 199.526 35.7C198.626 40.8 200.726 46.4 204.726 49.7C208.726 53 214.526 54.1 219.426 52.3" stroke="#8B5CF6" stroke-miterlimit="10" stroke-linecap="round" stroke-linejoin="round"/>
<path d="M19.6152 208.18C19.4152 215.08 19.2151 221.88 19.0151 228.78C25.8151 223.18 32.6151 217.68 39.3151 212.08" stroke="#69ACF7" stroke-miterlimit="10" stroke-linecap="round" stroke-linejoin="round"/>
</svg>
