<svg width="241" height="241" viewBox="0 0 241 241" fill="none" xmlns="http://www.w3.org/2000/svg">
<g clip-path="url(#clip0_70_73)">
<rect width="240" height="240" transform="translate(0.356934 0.400146)" fill="white"/>
<mask id="mask0_70_73" style="mask-type:alpha" maskUnits="userSpaceOnUse" x="46" y="44" width="176" height="197">
<path d="M46.6365 132.407C46.6365 84.0219 85.8603 44.7982 134.245 44.7982V44.7982C182.63 44.7982 221.854 84.022 221.854 132.407V240.4H46.6365L46.6365 132.407Z" fill="#E0E7FF"/>
</mask>
<g mask="url(#mask0_70_73)">
<path d="M46.6365 132.407C46.6365 84.022 85.8603 44.7982 134.245 44.7982V44.7982C182.63 44.7982 221.854 84.022 221.854 132.407V258.953H46.6365V132.407Z" fill="#E0E7FF"/>
<path d="M197.746 142.462L221.8 144.837C234.138 146.087 242.489 157.837 239.747 169.962L210.334 297.212C208.464 305.087 199.366 313.087 191.389 313.462L135.679 315.962C133.56 316.087 131.566 315.837 129.572 315.212L76.3535 295.712L102.152 222.587L197.746 142.462Z" fill="#69ACF7"/>
<path d="M73.6117 215.962C42.4536 224.587 27.2484 229.087 28.2455 245.587C29.2425 262.087 83.2085 342.962 83.2085 342.962L82.4607 357.712L103.648 341.462L70.2467 257.212L116.735 231.087L73.6117 215.962Z" fill="#1D6EE9"/>
<path d="M189.146 226.837C188.274 233.337 187.027 253.337 172.321 254.337C157.614 255.462 102.526 254.462 102.526 254.462L87.072 366.587L39.2131 352.587C39.2131 352.587 50.9286 348.587 59.7775 348.587C59.7775 348.587 59.4036 246.837 68.8757 236.962C78.3478 227.087 148.142 218.712 148.142 218.712L189.146 226.837Z" fill="#1D6EE9"/>
<path d="M105.144 240.462L152.753 230.212L152.379 225.837L99.1614 207.337L50.0562 220.962L105.144 240.462Z" fill="#69ACF7"/>
<path d="M149.762 98.3372C143.53 104.462 133.809 104.712 125.085 105.712C116.36 106.712 106.39 110.337 104.147 118.837C102.776 124.212 105.019 129.962 108.883 133.962C112.746 137.962 117.731 140.462 122.841 142.587C138.171 148.962 154.498 152.712 171.074 153.712C177.929 154.087 184.908 153.962 191.14 151.212C199.117 147.712 204.85 140.212 208.339 132.212C212.577 122.712 214.322 111.837 212.078 101.712C209.835 91.5872 203.479 82.0872 194.256 77.2122C186.155 72.9622 174.065 71.9622 166.214 77.4622C158.86 82.5872 156.118 92.2122 149.762 98.3372Z" fill="#8B5CF6"/>
<path d="M178.428 141.712C157.614 148.337 119.726 188.837 119.726 188.837L80.8403 209.337L97.0426 214.087L152.255 197.712L178.428 141.712Z" fill="black"/>
<path d="M172.321 134.462C155.121 145.587 139.916 157.712 147.145 169.587C147.145 169.587 141.162 190.712 117.607 198.837C117.607 198.837 172.695 229.212 189.395 226.837C189.395 226.837 212.577 142.087 199.366 134.587C186.03 127.087 172.321 134.462 172.321 134.462Z" fill="black"/>
<path d="M146.148 165.462C145.774 167.962 146.646 170.587 148.516 172.212C144.154 179.337 130.444 192.837 123.589 197.462" stroke="white" stroke-miterlimit="10" stroke-linecap="round" stroke-linejoin="round"/>
<path d="M195.751 96.0872C195.627 93.2122 194.505 89.2122 193.383 87.0872C191.514 83.0872 186.778 82.8372 182.914 82.5872C176.433 82.3372 169.952 83.3372 163.472 83.8372C162.973 85.4622 162.599 87.0872 162.35 88.9622C161.353 96.4622 159.234 100.837 152.504 104.712C156.492 105.837 158.237 106.462 162.848 106.587C163.845 113.837 171.822 118.712 177.555 118.337C186.155 117.712 192.137 113.337 196.25 107.337C197.247 105.962 197.995 104.587 198.493 103.087C198.867 102.712 195.377 98.3372 195.751 96.0872Z" fill="white"/>
<path d="M168.208 86.4622C172.32 86.9622 176.184 87.5872 180.297 87.0872C184.036 86.5872 185.158 92.8372 185.532 92.5872C190.018 89.7122 193.633 96.0872 190.641 99.5872C190.392 99.8372 192.636 102.337 193.259 102.712C194.38 103.337 195.751 103.462 196.998 103.462C197.621 103.462 198.119 103.337 198.743 103.212C200.487 98.9622 200.612 94.5872 199.615 89.7122C196.25 73.0872 183.039 68.9622 169.952 75.3372C166.089 77.2122 164.095 81.0872 163.098 86.2122C164.843 86.2122 167.211 86.2122 168.208 86.4622Z" fill="#8B5CF6"/>
<path d="M155.744 83.5872C160.231 88.0872 164.843 89.0872 170.95 90.4622C175.81 91.5872 182.665 90.5872 182.665 90.0872C184.285 83.2122 177.929 77.0872 171.323 76.8372C164.344 76.5872 159.608 80.3372 155.744 83.5872Z" fill="#8B5CF6"/>
<path d="M172.944 97.5872C173.193 98.0872 173.442 98.7122 173.567 99.2122" stroke="#020202" stroke-miterlimit="10" stroke-linecap="round" stroke-linejoin="round"/>
<path d="M177.929 113.212C179.549 113.337 181.17 111.962 181.419 110.337" stroke="#020202" stroke-miterlimit="10" stroke-linecap="round" stroke-linejoin="round"/>
<path d="M173.692 115.212C176.558 114.837 179.3 117.212 180.172 119.962C180.92 122.712 180.048 125.837 178.428 128.212C176.807 130.587 174.564 132.587 172.321 134.337C176.309 138.962 182.54 141.587 188.647 141.087C194.754 140.587 202.731 137.212 200.737 135.712C198.867 134.212 194.007 127.837 193.383 125.462C191.888 119.462 192.386 112.837 194.879 107.212C190.143 109.462 185.532 111.712 180.796 113.962" fill="white"/>
<path d="M205.722 222.087C169.329 223.962 152.753 236.587 151.382 267.462C150.011 298.337 198.867 256.212 198.867 256.212L205.722 222.087Z" fill="#69ACF7"/>
<path d="M192.137 222.962C194.505 222.712 196.873 222.462 199.117 222.212" stroke="#B0DFFF" stroke-miterlimit="10" stroke-linecap="round" stroke-linejoin="round"/>
<path d="M125.583 204.212C114.865 204.337 105.518 209.087 101.28 217.212C96.918 225.337 104.396 219.837 104.396 219.837C104.396 219.837 104.894 223.962 108.633 221.837C108.633 221.837 110.752 224.587 112.746 221.837C114.74 219.087 115.239 218.712 128.325 220.837C141.412 222.962 125.583 204.212 125.583 204.212Z" fill="white"/>
<path d="M200.612 135.837C209.586 143.837 207.218 204.087 195.128 215.962C183.039 227.837 128.076 220.837 128.076 220.837L125.459 204.212L178.303 198.462L200.612 135.837Z" fill="black"/>
<path d="M184.285 161.087C182.665 173.337 181.045 185.587 179.425 197.712C162.599 199.837 145.774 202.087 129.073 204.212" stroke="white" stroke-miterlimit="10" stroke-linecap="round" stroke-linejoin="round"/>
<path d="M104.521 219.587C104.521 217.587 106.016 215.587 107.886 215.087" stroke="#B0DFFF" stroke-miterlimit="10" stroke-linecap="round" stroke-linejoin="round"/>
<path d="M108.883 221.337C108.883 219.587 110.129 217.962 111.749 217.337" stroke="#B0DFFF" stroke-miterlimit="10" stroke-linecap="round" stroke-linejoin="round"/>
<path d="M40.4595 160.212L50.0562 220.962L105.144 240.462L93.8022 176.212C92.9298 171.212 88.9415 167.212 83.8316 166.587L40.4595 160.212Z" fill="#69ACF7"/>
<path d="M100.034 212.587C100.657 215.712 103.274 232.462 103.897 235.462C106.141 234.587 108.259 233.837 110.503 232.962" stroke="#FFF0D2" stroke-miterlimit="10" stroke-linecap="round" stroke-linejoin="round"/>
<path d="M65.7598 187.837C62.5193 188.337 59.6528 191.212 59.1542 194.462C58.5311 197.712 60.2759 201.337 63.2671 202.962C66.2583 204.587 70.1219 204.087 72.6146 201.837" stroke="white" stroke-miterlimit="10" stroke-linecap="round" stroke-linejoin="round"/>
</g>
<path d="M117.717 6.86255H25.6841C23.5083 6.86255 21.3515 7.27974 19.3475 8.11413C17.3435 8.94851 15.5112 10.1622 13.9653 11.6792C12.4193 13.2153 11.1978 15.0168 10.3771 17.0269C9.53732 19.018 9.11743 21.1609 9.11743 23.3227V58.7462C9.11743 63.1077 10.8543 67.2986 13.9653 70.3897C17.0763 73.4807 21.2943 75.2063 25.6841 75.2063H97.5619L115.14 100.105C115.235 100.219 115.35 100.314 115.503 100.371C115.655 100.428 115.808 100.428 115.942 100.371C116.094 100.333 116.209 100.238 116.304 100.105C116.4 99.9914 116.438 99.8397 116.438 99.688V75.2253H117.678C119.854 75.2253 122.011 74.8081 124.015 73.9737C126.019 73.1393 127.851 71.9257 129.397 70.4086C130.943 68.8726 132.165 67.0711 132.985 65.061C133.825 63.0698 134.245 60.927 134.245 58.7651V23.3227C134.245 18.9611 132.508 14.7703 129.397 11.6792C126.324 8.58821 122.106 6.86255 117.717 6.86255ZM91.1871 66.1608L91.5116 66.597C91.4162 66.5591 91.3398 66.5022 91.2826 66.4263C91.2253 66.3505 91.1871 66.2557 91.1871 66.1608Z" fill="#FEF3C7"/>
<path d="M55.0524 22.4826C48.8651 22.4826 42.7481 22.4637 36.6311 22.4447C36.4201 22.4447 36.2092 22.4258 36.0334 22.3878C35.8576 22.3499 35.6819 22.293 35.5412 22.2172C35.4006 22.1413 35.2952 22.0465 35.1897 21.9517C35.1194 21.8569 35.0842 21.7431 35.0842 21.6293C35.0842 21.5155 35.1194 21.4207 35.2248 21.3069C35.2952 21.2121 35.4358 21.1173 35.5764 21.0414C35.717 20.9656 35.8928 20.9087 36.1037 20.8708C36.2795 20.8328 36.4904 20.8139 36.7014 20.8328C59.9038 20.9466 83.4578 20.8328 106.66 20.5294C106.871 20.5294 107.082 20.5294 107.258 20.5673C107.434 20.6053 107.609 20.6622 107.785 20.738C107.926 20.8139 108.066 20.9087 108.137 21.0035C108.207 21.0983 108.277 21.2121 108.277 21.3259C108.277 21.4397 108.242 21.5345 108.172 21.6483C108.102 21.7431 107.996 21.8379 107.856 21.9137C107.715 21.9896 107.539 22.0465 107.363 22.0844C107.188 22.1223 106.977 22.1413 106.766 22.1413C89.5748 22.3689 72.2785 22.4826 55.0524 22.4826Z" fill="#A5B4FC"/>
<path d="M49.0404 33.0918C48.8304 33.0918 48.6396 32.997 48.4869 32.8642C48.3342 32.7125 48.2579 32.5229 48.2388 32.3143C48.2388 32.1057 48.296 31.9161 48.4296 31.7454C48.5632 31.5937 48.7541 31.4989 48.964 31.4799C58.5834 30.7403 68.3745 30.399 78.0129 30.4369C78.2228 30.4369 78.4328 30.5128 78.5855 30.6645C78.7382 30.8162 78.8145 31.0248 78.8145 31.2334C78.8145 31.442 78.7382 31.6506 78.5855 31.8023C78.4328 31.954 78.2228 32.0298 78.0129 32.0298C68.3936 31.9919 58.6597 32.3333 49.0786 33.0728L49.0404 33.0918Z" fill="#A5B4FC"/>
<path d="M90.2091 31.6127C89.9991 31.6127 89.8083 31.5369 89.6556 31.3852C89.5029 31.2335 89.4266 31.0438 89.4075 30.8352C89.4075 30.6267 89.4647 30.437 89.5983 30.2663C89.7319 30.1146 89.9228 30.0198 90.1327 29.9819C95.4577 29.5268 100.802 29.413 106.127 29.6216C106.241 29.6216 106.337 29.6595 106.432 29.6974C106.528 29.7354 106.623 29.8112 106.68 29.8871C106.757 29.9629 106.814 30.0578 106.852 30.1526C106.89 30.2474 106.909 30.3612 106.909 30.456C106.909 30.5698 106.871 30.6646 106.833 30.7594C106.795 30.8542 106.718 30.949 106.642 31.0059C106.566 31.0818 106.47 31.1387 106.375 31.1766C106.279 31.2145 106.165 31.2335 106.07 31.2335C100.802 31.0249 95.515 31.1576 90.2663 31.5938L90.2091 31.6127Z" fill="#A5B4FC"/>
<path d="M52.1652 44.789C51.9552 44.789 51.7453 44.7131 51.5926 44.5804C51.4399 44.4286 51.3445 44.239 51.3445 44.0115C51.3445 43.8029 51.4208 43.5943 51.5544 43.4426C51.7071 43.2908 51.898 43.196 52.127 43.196C70.4686 41.9255 89.0775 41.5273 107.457 42.0013C107.572 42.0013 107.667 42.0203 107.782 42.0582C107.877 42.0962 107.973 42.153 108.049 42.2289C108.125 42.3048 108.183 42.3996 108.221 42.4944C108.259 42.5892 108.278 42.703 108.278 42.8168C108.278 42.9305 108.259 43.0254 108.202 43.1391C108.163 43.234 108.087 43.3288 108.011 43.4046C107.934 43.4805 107.839 43.5374 107.724 43.5753C107.629 43.6132 107.515 43.6322 107.4 43.6132C89.0775 43.1391 70.5068 43.5374 52.2224 44.789H52.1652Z" fill="#A5B4FC"/>
<path d="M34.6442 58.0634C34.4342 58.0634 34.2243 57.9875 34.0716 57.8358C33.9189 57.6841 33.8235 57.4755 33.8235 57.2669C33.8235 57.0583 33.8998 56.8497 34.0525 56.698C34.2052 56.5463 34.4152 56.4515 34.6251 56.4515L74.2857 55.1051C74.4957 55.1051 74.7056 55.181 74.8392 55.3327C74.9919 55.4844 75.0874 55.674 75.0874 55.8826C75.0874 56.0912 75.011 56.2998 74.8774 56.4515C74.7438 56.6032 74.5339 56.698 74.3239 56.717L34.6824 58.0634H34.6442Z" fill="#A5B4FC"/>
<path d="M88.6763 55.6362C88.4664 55.6362 88.2755 55.5413 88.1228 55.3896C87.9701 55.2379 87.8938 55.0483 87.8938 54.8397C87.8938 54.6311 87.9701 54.4225 88.1038 54.2708C88.2374 54.1191 88.4473 54.0243 88.6572 54.0053C94.8983 53.7209 101.235 53.6071 107.495 53.645C107.705 53.664 107.896 53.7398 108.049 53.8915C108.201 54.0432 108.278 54.2329 108.278 54.4415C108.278 54.6501 108.201 54.8397 108.049 54.9914C107.896 55.1431 107.705 55.2379 107.495 55.2379C101.273 55.2 94.9747 55.3138 88.7527 55.5982H88.6763V55.6362Z" fill="#A5B4FC"/>
<path d="M22.5922 181.994C27.5473 178.325 30.7376 172.602 31.3121 166.521C31.8866 160.441 29.7038 154.145 25.5383 149.684" stroke="#B0DFFF" stroke-miterlimit="10" stroke-linecap="round" stroke-linejoin="round"/>
<path d="M10.8031 168.471C13.0644 169.465 14.3328 172.436 13.4102 174.768" stroke="#B0DFFF" stroke-miterlimit="10" stroke-linecap="round" stroke-linejoin="round"/>
<path d="M172.278 13.4669C169.778 22.0669 176.078 32.1669 184.878 33.7669" stroke="#E0E7FF" stroke-miterlimit="10" stroke-linecap="round" stroke-linejoin="round"/>
<path d="M212.727 51.0361C214.827 52.4361 216.927 53.8361 219.027 55.2361" stroke="#A5B4FC" stroke-miterlimit="10" stroke-linecap="round" stroke-linejoin="round"/>
<path d="M217.527 47.9362C215.527 50.5362 213.527 53.0362 211.527 55.6362" stroke="#A5B4FC" stroke-miterlimit="10" stroke-linecap="round" stroke-linejoin="round"/>
</g>
<defs>
<clipPath id="clip0_70_73">
<rect width="240" height="240" fill="white" transform="translate(0.356934 0.400146)"/>
</clipPath>
</defs>
</svg>
