<svg width="241" height="241" viewBox="0 0 241 241" fill="none" xmlns="http://www.w3.org/2000/svg">
<g clip-path="url(#clip0_70_72)">
<rect width="240" height="240" transform="translate(0.5 0.400146)" fill="white"/>
<path d="M8.61133 129.854C8.61133 81.4692 47.8351 42.2454 96.2201 42.2454V42.2454C144.605 42.2454 183.829 81.4692 183.829 129.854V240.4H8.61133V129.854Z" fill="#E0E7FF"/>
<g clip-path="url(#clip1_70_72)">
<path d="M101.552 115.564C102.044 108.432 101.183 96.7509 95.5256 88.5125C91.7132 89.988 89.4995 94.6605 87.4088 97.8576C85.933 100.071 84.3343 102.284 82.2436 104.006C79.661 106.096 76.5865 106.711 73.3889 106.219C70.4374 105.727 67.7318 104.62 64.7803 104.498C62.3206 104.375 59.615 104.743 57.5244 105.973C53.466 108.432 53.097 114.211 53.7119 118.392C54.3268 122.081 54.4498 125.77 51.2523 128.229C49.0387 129.951 46.3331 130.565 43.6275 131.18C47.8088 141.386 43.0126 142.862 41.0449 145.321C41.0449 145.321 40.5529 145.567 39.5691 146.305C41.9057 153.559 47.4399 160.322 53.8349 164.38C55.6796 165.487 57.6473 166.593 59.615 167.454C58.7542 157.74 61.2138 152.207 71.0523 153.805C87.7778 156.633 95.4026 136.345 95.4026 136.345C98.8461 136.345 110.775 134.254 110.775 134.254C110.775 134.254 100.814 126.016 101.552 115.564Z" fill="white"/>
<path d="M45.1035 135.238C50.2688 122.204 47.3172 107.203 49.0389 93.3079L50.6377 84.7006C42.275 101.915 23.4588 113.228 4.39673 113.351C14.4812 121.958 22.8439 136.345 45.1035 135.238Z" fill="black"/>
<path d="M45.1035 135.238C51.6215 133.27 57.6476 129.213 61.8289 123.925C57.0327 122.327 54.2041 116.056 56.6637 111.26C59.9842 104.743 69.3308 107.08 74.373 110.277C82.4898 108.186 89.3767 102.161 94.296 95.5211C95.2798 94.1685 96.2637 92.693 97.2475 91.2174C94.542 86.053 90.4836 81.8723 84.2115 80.0279C40.5532 66.9939 31.3296 109.293 41.0451 126.016C43.2587 129.828 44.4886 132.779 45.1035 135.238Z" fill="black"/>
<path d="M31.8215 62.3214C25.6725 63.92 20.6302 69.5762 20.1383 75.9702C18.7855 91.3405 38.9544 96.5049 48.547 86.6679C59.6153 75.6013 45.3495 58.8785 31.8215 62.3214Z" fill="black"/>
<path d="M91.8364 114.211C91.3445 115.318 90.8525 116.425 90.3606 117.654" stroke="#020202" stroke-width="1.33547" stroke-miterlimit="10" stroke-linecap="round" stroke-linejoin="round"/>
<path d="M75.7259 134.377C75.234 136.713 76.0948 139.419 77.8166 141.14C79.5383 142.862 82.1209 143.722 84.5805 143.23" stroke="#020202" stroke-width="1.33547" stroke-miterlimit="10" stroke-linecap="round" stroke-linejoin="round"/>
<path d="M80.645 92.2011C87.6549 94.2914 88.8847 104.128 88.8847 104.128L106.963 95.8899C106.963 95.8899 94.6648 79.2901 84.5803 82.733C74.4959 86.053 80.645 92.2011 80.645 92.2011Z" fill="black"/>
<path d="M184.565 166.224L184.442 175.938L183.212 245.658L182.597 278.243L74.8652 279.103L116.802 247.625L131.191 172.618L184.565 166.224Z" fill="black"/>
<path d="M184.441 175.938L183.212 245.658L125.287 243.199L135.618 181.841L184.441 175.938Z" fill="#FFCF64"/>
<path d="M141.767 185.283C140.045 194.628 138.323 203.974 136.602 213.319C148.531 213.196 160.337 213.073 172.266 212.95" stroke="white" stroke-width="1.33547" stroke-miterlimit="10" stroke-linecap="round" stroke-linejoin="round"/>
<path d="M137.462 222.418C143.243 222.295 148.9 222.172 154.68 222.049" stroke="white" stroke-width="1.33547" stroke-miterlimit="10" stroke-linecap="round" stroke-linejoin="round"/>
<path d="M161.198 221.803C163.904 221.68 166.732 221.557 169.438 221.434" stroke="white" stroke-width="1.33547" stroke-miterlimit="10" stroke-linecap="round" stroke-linejoin="round"/>
<path d="M49.4081 237.296C88.0242 215.778 97.7397 213.319 105.611 220.205C111.022 224.877 116.679 228.935 113.973 229.796C111.268 230.656 108.808 229.796 104.258 227.336C98.3546 224.262 101.06 234.591 84.4577 242.215C67.8553 249.838 42.2751 267.791 42.2751 267.791L49.4081 237.296Z" fill="white"/>
<path d="M85.0723 234.96C88.3928 232.378 91.7133 229.796 95.0337 227.213C95.8946 226.476 96.8785 225.861 97.9853 225.861C99.0921 225.861 100.322 226.845 99.953 227.828" stroke="#4F46E5" stroke-width="1.33547" stroke-miterlimit="10" stroke-linecap="round" stroke-linejoin="round"/>
<path d="M101.429 221.557C105.487 223.402 109.423 225.123 113.481 226.967" stroke="#4F46E5" stroke-width="1.33547" stroke-miterlimit="10" stroke-linecap="round" stroke-linejoin="round"/>
<path d="M58.3854 228.935C58.3854 228.935 52.7283 258.2 49.1618 279.226L-5.56485 279.718L-6.30273 193.276C9.06993 167.577 35.3879 149.01 40.7991 145.321C43.3817 152.575 47.932 158.969 54.573 163.027C56.1718 164.011 57.7705 164.749 59.4923 165.363C59.7382 172.495 62.1979 182.209 65.1494 193.399C71.1755 217.745 65.5183 222.541 58.3854 228.935Z" fill="#4F46E5"/>
<path d="M97.3705 254.511C75.7258 258.569 53.9581 263.364 53.9581 263.364L51.1296 173.11L20.7532 179.996C20.7532 179.996 21.86 201.637 23.9507 239.878C26.1644 278.12 23.0898 298.285 54.819 290.047C68.3469 286.481 86.3022 280.948 102.905 275.906C101.183 268.775 99.2153 261.643 97.3705 254.511Z" fill="#4F46E5"/>
<path d="M17.8018 201.76C20.0154 225.615 22.1061 249.592 24.3198 273.447" stroke="#020202" stroke-width="1.33547" stroke-miterlimit="10" stroke-linecap="round" stroke-linejoin="round"/>
<path d="M43.5049 191.062C46.2105 213.933 48.9161 236.804 51.4987 259.675" stroke="#020202" stroke-width="1.33547" stroke-miterlimit="10" stroke-linecap="round" stroke-linejoin="round"/>
</g>
<path d="M237.569 36.7015C237.569 40.5907 236.803 44.4603 235.311 48.0563C233.819 51.6523 231.62 54.9357 228.851 57.6913C226.083 60.4469 222.804 62.6358 219.172 64.1211C215.559 65.6065 211.672 66.3687 207.765 66.3687H137.24C135.925 66.3687 134.629 66.2905 133.333 66.1146L108.967 84.5442C108.85 84.6419 108.693 84.7005 108.535 84.7005C108.378 84.7005 108.221 84.6615 108.084 84.5637C107.946 84.466 107.848 84.3488 107.809 84.1924C107.75 84.0361 107.75 83.8797 107.789 83.7234L115.78 57.2613C111.736 53.0595 109.007 47.7827 107.946 42.0564C106.886 36.3301 107.554 30.428 109.831 25.073C112.128 19.7181 115.937 15.1449 120.826 11.9397C125.715 8.73459 131.389 7.0343 137.24 7.0343H207.765C211.672 7.0343 215.559 7.7965 219.172 9.30136C222.785 10.7867 226.063 12.9756 228.832 15.7312C231.6 18.4868 233.799 21.7506 235.291 25.3662C236.803 28.9427 237.569 32.8123 237.569 36.7015Z" fill="#FEF3C7"/>
<path d="M143.523 58.7075H143.386C143.189 58.688 142.993 58.6294 142.816 58.5317C142.64 58.4339 142.502 58.2971 142.404 58.1212C141.972 57.4763 142.011 56.4209 142.247 55.6783C143.17 52.7272 144.583 49.9716 146.429 47.4895C147.116 46.571 147.882 45.7111 148.726 44.9293C148.687 43.5613 148.49 42.2127 148.137 40.8838C148.039 40.4929 147.901 40.0825 147.607 39.8675C147.312 39.6916 146.959 39.6135 146.625 39.633C143.975 39.5744 141.206 40.7274 138.831 42.8186C139.047 47.724 137.299 52.4927 134.001 56.1278C133.687 56.5382 133.255 56.8314 132.744 56.9682C132.528 57.0073 132.293 57.0073 132.057 56.9682C131.841 56.9095 131.625 56.8118 131.448 56.675C131.193 56.4991 130.997 56.2646 130.84 55.991C130.683 55.7174 130.584 55.4242 130.545 55.1311C130.447 54.1539 130.879 53.2744 131.252 52.5513C132.823 49.3657 134.452 46.0628 136.926 43.3854C137.24 43.0531 137.554 42.7404 137.869 42.4277C137.829 41.9196 137.77 41.431 137.692 40.9424C137.653 40.532 137.515 40.1216 137.299 39.7503C136.592 38.7731 134.943 39.1053 134.001 39.3789C129.073 40.8642 124.694 43.7567 121.415 47.7045C121.337 47.7631 121.219 47.8022 121.121 47.8022C121.023 47.8022 120.905 47.7631 120.826 47.7045C120.748 47.6459 120.689 47.5482 120.669 47.4504C120.65 47.3527 120.669 47.2355 120.709 47.1377C124.105 43.0531 128.641 40.0434 133.726 38.519C135.728 37.9132 137.26 38.1672 138.026 39.2421C138.34 39.7112 138.516 40.2584 138.575 40.8056C138.615 41.0988 138.674 41.3919 138.693 41.7046C141.128 39.7307 143.916 38.6754 146.606 38.734C147.136 38.7144 147.685 38.8513 148.137 39.1444C148.628 39.5157 148.844 40.0825 148.981 40.6493C149.295 41.8023 149.492 42.9554 149.57 44.1476C152.574 41.646 156.521 39.9652 160.546 41.1183C160.644 41.1574 160.722 41.2551 160.762 41.3528C160.801 41.4506 160.82 41.5678 160.781 41.6655C160.742 41.7632 160.683 41.861 160.585 41.9196C160.487 41.9782 160.389 41.9978 160.271 41.9978C156.344 40.8642 152.476 42.7209 149.61 45.3202C149.649 49.9129 148.019 54.3493 144.996 57.8476C144.701 58.219 144.191 58.7075 143.523 58.7075ZM148.726 46.1801C148.176 46.7469 147.646 47.3527 147.175 47.9977C145.388 50.382 144.014 53.0594 143.13 55.9128C142.934 56.5382 142.954 57.2613 143.17 57.5936C143.209 57.6522 143.248 57.6913 143.307 57.7304C143.366 57.7695 143.425 57.789 143.484 57.789C143.818 57.8281 144.171 57.4568 144.407 57.1831C147.018 54.1734 148.549 50.2061 148.726 46.1801ZM137.947 43.6394C137.849 43.7567 137.731 43.874 137.633 43.9717C135.238 46.571 133.647 49.8152 132.096 52.9422C131.704 53.7239 131.429 54.3689 131.488 55.0333C131.507 55.2092 131.566 55.3851 131.645 55.5415C131.743 55.6978 131.861 55.8346 131.998 55.9324C132.077 55.991 132.175 56.0301 132.253 56.0692C132.351 56.0887 132.45 56.0887 132.548 56.0887C132.862 55.9714 133.117 55.776 133.313 55.5219C136.298 52.2386 137.927 48.0172 137.947 43.6394Z" fill="#A5B4FC"/>
<path d="M193.659 33.5354C193.364 33.5354 193.07 33.4768 192.795 33.3595C192.52 33.2422 192.284 33.0663 192.088 32.8318C190.871 31.4442 191.028 28.3563 191.46 27.1642C192.304 24.8189 194.149 21.9656 196.466 19.9135C196.348 19.4249 196.172 18.9754 195.936 18.5454C194.837 16.7279 192.402 16.1807 190.596 16.4543C188.495 16.767 186.61 17.9591 184.863 19.1708C184.038 19.7571 183.272 20.3435 182.585 20.9102C182.683 21.731 182.723 22.4737 182.742 23.0209C182.86 26.4606 181.78 29.8416 179.679 32.5582C179.444 32.91 179.11 33.1836 178.737 33.3595C178.501 33.4572 178.226 33.4963 177.971 33.4768C177.716 33.4572 177.461 33.3595 177.245 33.2031C176.4 32.6364 175.988 31.3465 176.008 30.4084C176.106 26.9687 177.952 23.7245 181.603 20.5389C181.309 18.8191 180.681 17.2947 179.208 16.6106C175.753 14.9885 170.432 17.2165 167.467 19.4444C167.526 19.8744 167.565 20.3239 167.585 20.7734C167.663 22.5714 167.114 29.568 164.561 31.6983C164.267 31.9719 163.894 32.1478 163.501 32.2455C163.108 32.3432 162.696 32.3432 162.303 32.2455C161.282 32.011 160.634 31.4247 160.419 30.5061C159.633 27.1642 164.974 20.2653 166.446 19.0536C166.171 17.666 165.602 16.6497 164.758 15.9852C163.54 15.0276 161.695 14.8126 159.142 15.3403C157.061 15.7703 154.411 16.5911 151.996 18.1741C151.996 18.5064 151.996 18.8777 151.996 19.1904C151.819 23.4704 150.818 26.7147 148.835 29.3726C147.774 30.8188 146.91 30.8384 146.361 30.6234C145.438 30.213 144.967 28.6495 145.301 26.9101C145.85 23.959 146.891 21.731 148.56 19.894C149.306 19.0731 150.13 18.35 151.053 17.7246C150.975 16.982 150.759 16.3175 150.287 15.8484C149.797 15.3794 149.129 15.1449 148.147 15.0471C145.575 14.8126 142.846 15.7898 140.333 17.7246C140.529 18.7604 140.549 19.8353 140.372 20.8711C139.901 23.9786 138.762 26.9687 137.035 29.6071C136.289 30.7406 135.366 31.327 134.561 31.2292C134.09 31.1706 133.481 30.8384 133.108 29.6658C132.283 27.1251 134.561 22.8255 135.778 21.1447C136.799 19.7376 137.977 18.4673 139.293 17.3533C139.194 17.0015 139.018 16.6693 138.782 16.3761C138.546 16.0829 138.252 15.8484 137.918 15.6921C136.819 15.1644 135.366 15.4966 133.54 16.6693C128.415 19.9917 124.273 24.5453 121.838 29.4899C121.779 29.5876 121.681 29.6462 121.583 29.6658C121.485 29.6853 121.367 29.6853 121.269 29.6267C121.171 29.5876 121.092 29.4899 121.053 29.3921C121.013 29.2944 120.994 29.1772 121.033 29.0794C123.527 23.9786 127.807 19.3076 133.049 15.8875C135.15 14.5195 136.937 14.1677 138.331 14.8517C139.135 15.2426 139.744 15.9266 140.058 16.7474C142.218 15.1058 145.006 13.8159 148.226 14.0895C149.424 14.1872 150.327 14.539 150.935 15.1449C151.466 15.6921 151.799 16.3761 151.917 17.1188C154.096 15.8093 156.492 14.8908 158.985 14.4022C161.832 13.8159 163.913 14.0895 165.347 15.223C166.269 15.9461 166.898 17.021 167.251 18.4086C170.51 16.1807 175.949 14.07 179.601 15.7898C181.289 16.5715 182.055 18.2523 182.389 19.8744C182.997 19.3858 183.626 18.8972 184.332 18.4086C186.178 17.1188 188.181 15.868 190.458 15.5357C192.638 15.2035 195.406 15.868 196.721 18.0569C196.937 18.4282 197.114 18.8386 197.252 19.249C197.919 18.7213 198.646 18.2718 199.392 17.9005C201.316 16.982 204.516 15.438 206.911 16.2784C207.893 16.6302 208.659 17.3533 209.169 18.4282C209.209 18.5259 209.267 18.6236 209.307 18.7213C213.646 16.1807 218.927 15.9461 223.561 16.0634C223.679 16.0634 223.796 16.122 223.875 16.2002C223.954 16.2784 224.012 16.3956 224.012 16.5129C224.012 16.6302 223.954 16.7474 223.875 16.8256C223.796 16.9038 223.679 16.9624 223.561 16.9624C219.006 16.8451 213.783 17.0797 209.601 19.6203C209.837 20.7734 209.837 21.946 209.64 23.0991C209.228 25.9134 208.148 28.6104 206.479 30.9361C206.047 31.5419 205.36 32.3628 204.379 32.4019C203.397 32.4409 202.553 31.6397 202.278 30.7993C202.003 29.9589 202.121 29.0794 202.278 28.3368C203.102 24.604 205.341 21.3402 208.521 19.2099C208.462 19.0731 208.423 18.9363 208.345 18.7995C207.932 17.9396 207.363 17.3924 206.597 17.1188C204.575 16.3956 201.571 17.8419 199.784 18.7018C198.96 19.1122 198.174 19.6203 197.468 20.2066C197.566 20.7734 197.605 21.3402 197.664 21.9265C197.899 25.1121 198.017 32.6168 194.189 33.4377C194.032 33.4963 193.835 33.5158 193.659 33.5354ZM196.663 20.9688C194.66 22.8841 193.07 25.3662 192.323 27.4573C191.95 28.5127 191.872 31.1901 192.795 32.226C192.952 32.4019 193.128 32.5191 193.364 32.5777C193.58 32.6364 193.816 32.6364 194.032 32.5777C197.31 31.8742 196.898 23.6659 196.78 22.0242C196.741 21.6724 196.702 21.3206 196.663 20.9688ZM181.741 21.6724C178.58 24.5453 177.009 27.4378 176.911 30.467C176.891 31.2488 177.264 32.1478 177.755 32.48C177.834 32.5387 177.952 32.5777 178.05 32.5973C178.148 32.6168 178.266 32.5973 178.364 32.5582C178.599 32.4214 178.796 32.2455 178.953 32.0305C180.936 29.4703 181.937 26.3042 181.819 23.0796C181.819 22.591 181.78 22.1219 181.741 21.6724ZM208.777 20.2066C205.93 22.2196 203.947 25.2098 203.201 28.5909C203.063 29.2162 202.945 29.9198 203.161 30.5648C203.318 31.0533 203.809 31.581 204.359 31.5419C204.811 31.5224 205.242 31.1902 205.753 30.4475C207.324 28.2391 208.345 25.6984 208.737 23.0209C208.894 22.0828 208.894 21.1252 208.777 20.2066ZM166.642 20.1871C164.875 22.0242 160.733 27.7896 161.341 30.3107C161.479 30.8775 161.852 31.2292 162.539 31.366C162.794 31.4247 163.069 31.4247 163.305 31.366C163.56 31.3074 163.796 31.1706 163.992 30.9947C166.093 29.2749 166.78 22.9232 166.682 20.8125C166.662 20.5975 166.642 20.3825 166.642 20.1871ZM139.548 18.4282C138.429 19.4249 137.427 20.5389 136.544 21.7506C135.15 23.6854 133.363 27.4573 134.011 29.4508C134.109 29.783 134.345 30.3302 134.718 30.3693C135.13 30.428 135.778 29.9394 136.308 29.1381C137.957 26.6169 139.057 23.744 139.509 20.7539C139.607 19.9917 139.626 19.2099 139.548 18.4282ZM151.112 18.8581C150.445 19.3663 149.836 19.933 149.267 20.5389C147.715 22.2392 146.753 24.3303 146.243 27.1055C145.988 28.4931 146.302 29.6267 146.773 29.8221C147.087 29.9589 147.598 29.5876 148.128 28.884C149.993 26.3629 150.935 23.2945 151.112 19.2099C151.112 19.0731 151.112 18.9559 151.112 18.8581Z" fill="#A5B4FC"/>
<path d="M178.317 57.0268C178.023 57.0268 177.748 56.9486 177.493 56.8118C177.238 56.675 177.022 56.4795 176.845 56.245C176.668 56.0105 176.531 55.7564 176.452 55.4633C176.236 54.6034 176.491 53.7239 176.806 52.9031C177.885 50.0888 179.476 47.4895 181.478 45.242C181.262 44.597 180.811 44.0498 180.202 43.698C178.671 42.8381 176.649 43.7762 175.058 44.6947C171.308 46.8445 167.205 49.4829 165.771 53.6262C165.712 53.7239 165.634 53.8021 165.536 53.8412C165.438 53.8802 165.32 53.8802 165.222 53.8412C165.123 53.8021 165.025 53.7434 164.966 53.6457C164.908 53.548 164.888 53.4503 164.908 53.333C166.439 48.8966 170.719 46.141 174.607 43.913C176.413 42.8772 178.73 41.8218 180.654 42.9163C181.302 43.2876 181.832 43.8348 182.146 44.5189C182.205 44.4407 182.283 44.3821 182.342 44.3039C183.383 43.2485 187.015 39.9457 190.549 41.5678C192.199 42.33 193.357 44.0498 193.769 46.2973C195.497 44.5775 197.421 43.0335 199.502 41.7241C201.682 40.3365 203.429 40.0043 204.823 40.7274C206.119 41.3919 206.688 42.799 206.943 43.8544L206.983 44.0303C207.906 42.8381 209.005 41.7828 210.222 40.8642C212.421 39.3007 214.934 38.6949 217.133 39.2225C217.232 39.2421 217.33 39.3007 217.408 39.3984C218.154 40.4538 218.665 41.685 218.881 42.9554C221.119 41.1574 223.671 39.7893 226.401 38.9489C226.518 38.9294 226.617 38.9685 226.715 39.0271C226.813 39.0857 226.872 39.1835 226.911 39.2812C226.95 39.3789 226.931 39.4962 226.891 39.5939C226.852 39.6916 226.774 39.7698 226.675 39.8284C223.848 40.7079 221.237 42.1345 218.999 44.0498C219.058 45.1833 218.959 46.3169 218.704 47.4309C217.997 50.4015 216.25 52.9812 214.993 54.662C214.817 54.8965 214.208 55.6392 213.462 55.7173C213.305 55.7369 213.148 55.7173 212.991 55.6783C212.834 55.6392 212.696 55.561 212.578 55.4633C212.284 55.1897 212.107 54.8183 212.088 54.4275C211.813 52.5317 212.677 50.6946 213.364 49.4829C214.601 47.294 216.171 45.3397 218.056 43.6785C217.919 42.3886 217.487 41.1574 216.78 40.0825C214.876 39.6916 212.716 40.2584 210.792 41.6264C209.378 42.6427 208.2 43.9716 207.218 45.2811C207.474 48.2321 206.433 51.1832 205.157 54.3884C204.96 54.8965 204.45 56.1082 203.37 56.2841C202.349 56.4405 201.505 55.5414 201.348 54.6034C201.21 53.7825 201.505 52.9617 201.839 52.219C202.879 49.8738 204.293 47.7826 205.51 46.0433C205.746 45.711 206.001 45.3397 206.276 44.9879C206.237 44.6752 206.178 44.343 206.099 44.0303C205.923 43.3072 205.491 42.0368 204.45 41.5091C203.37 40.9619 201.937 41.2746 200.052 42.4668C197.833 43.8739 195.791 45.5351 193.966 47.4309V47.5286C194.123 50.3819 193.377 53.2158 191.825 55.6001C191.551 56.0105 191.236 56.4209 190.726 56.5968C190.51 56.675 190.294 56.6945 190.058 56.675C189.842 56.6554 189.626 56.5773 189.43 56.46C189.175 56.3036 188.959 56.1082 188.782 55.8541C188.606 55.6001 188.507 55.3265 188.448 55.0333C188.311 54.1343 188.684 53.2939 189.096 52.5317C190.176 50.5774 191.472 48.7403 193.003 47.1182C192.866 45.8478 192.297 43.3267 190.215 42.3691C187.231 41.001 183.972 43.9716 183.049 44.9097C182.872 45.0856 182.715 45.2615 182.558 45.4374C182.794 46.395 182.853 47.3918 182.755 48.3689C182.499 51.066 181.557 53.6457 180.026 55.8737C179.711 56.3232 179.358 56.7727 178.808 56.9486C178.632 56.9877 178.474 57.0268 178.317 57.0268ZM181.753 46.3169C180.026 48.3885 178.651 50.7142 177.669 53.2353C177.375 54.017 177.198 54.662 177.355 55.2483C177.395 55.4046 177.473 55.561 177.571 55.6978C177.669 55.8346 177.807 55.9323 177.944 56.03C178.023 56.0887 178.121 56.1082 178.219 56.1278C178.317 56.1473 178.416 56.1278 178.514 56.1082C178.789 56.03 179.005 55.7564 179.26 55.4046C180.693 53.2939 181.577 50.851 181.812 48.3299C181.871 47.6263 181.851 46.9618 181.753 46.3169ZM193.062 48.4276C191.845 49.8347 190.785 51.3591 189.901 52.9812C189.548 53.6262 189.253 54.2907 189.352 54.9161C189.391 55.0724 189.45 55.2288 189.528 55.3656C189.626 55.5024 189.744 55.6196 189.882 55.6978C189.96 55.7564 190.039 55.776 190.137 55.7955C190.235 55.8151 190.314 55.7955 190.412 55.776C190.687 55.6196 190.903 55.4046 191.04 55.131C192.336 53.118 193.023 50.8119 193.062 48.4276ZM206.315 46.4732L206.237 46.5709C205.039 48.2712 203.684 50.3038 202.644 52.5904C202.388 53.1571 202.114 53.8216 202.231 54.447C202.31 54.9356 202.761 55.4437 203.213 55.3656C203.724 55.2874 204.057 54.6229 204.273 54.0366C205.353 51.3591 206.237 48.8771 206.315 46.4732ZM218.115 44.8511C216.544 46.3364 215.209 48.0367 214.169 49.9129C213.187 51.6523 212.834 53.0399 213.01 54.2907C213.01 54.4666 213.089 54.6229 213.187 54.7597C213.207 54.7792 213.246 54.7988 213.266 54.7988C213.305 54.7988 213.324 54.8183 213.364 54.7988C213.619 54.7597 213.992 54.4861 214.287 54.0952C215.484 52.4731 217.173 50.0106 217.84 47.1963C217.997 46.4341 218.095 45.6328 218.115 44.8511Z" fill="#A5B4FC"/>
<path d="M223.89 176.605C214.599 178.948 207.485 188.081 207.657 197.683C207.73 200.598 208.547 203.751 210.922 205.442C213.298 207.132 217.395 206.309 217.958 203.464C218.336 201.447 216.828 199.444 214.958 198.736C213.003 198.081 210.885 198.477 208.982 199.211C204.194 201.184 200.591 205.958 199.948 211.103C199.305 216.249 201.483 221.735 205.629 224.908" stroke="#8B5CF6" stroke-miterlimit="10" stroke-linecap="round" stroke-linejoin="round"/>
<path d="M33.1825 18.2168C34.7825 23.0168 32.3825 28.8168 27.7825 30.8168" stroke="#B0DFFF" stroke-miterlimit="10" stroke-linecap="round" stroke-linejoin="round"/>
<path d="M41.5457 25.5668C42.3457 29.4668 40.5457 33.7668 37.3457 36.0668" stroke="#B0DFFF" stroke-miterlimit="10" stroke-linecap="round" stroke-linejoin="round"/>
</g>
<defs>
<clipPath id="clip0_70_72">
<rect width="240" height="240" fill="white" transform="translate(0.5 0.400146)"/>
</clipPath>
<clipPath id="clip1_70_72">
<rect width="175" height="190" fill="white" transform="translate(8.70557 50.1321)"/>
</clipPath>
</defs>
</svg>
