<svg width="241" height="241" viewBox="0 0 241 241" fill="none" xmlns="http://www.w3.org/2000/svg">
<rect width="240" height="240" transform="translate(0.927734 0.400146)" fill="white"/>
<circle cx="118.916" cy="120.4" r="91.1334" fill="#A5B4FC"/>
<path d="M58.8954 68.3854H178.886C181.723 68.3854 184.535 68.9293 187.148 70.0172C189.761 71.105 192.15 72.6874 194.165 74.6653C196.181 76.668 197.773 79.0168 198.843 81.6375C199.938 84.2336 200.486 87.0274 200.486 89.8459V136.031C200.486 141.717 198.221 147.181 194.165 151.211C190.109 155.241 184.61 157.491 178.886 157.491H85.173L62.2548 189.954C62.1303 190.102 61.981 190.226 61.782 190.3C61.5829 190.374 61.3838 190.374 61.2096 190.3C61.0105 190.251 60.8612 190.127 60.7368 189.954C60.6124 189.806 60.5626 189.608 60.5626 189.41V157.516H58.9452C56.1084 157.516 53.2965 156.972 50.6837 155.884C48.0708 154.796 45.682 153.214 43.6663 151.236C41.6507 149.233 40.0582 146.885 38.9881 144.264C37.8932 141.668 37.3458 138.874 37.3458 136.055V89.8459C37.3458 84.1594 39.6102 78.6953 43.6663 74.6653C47.6727 70.6353 53.1721 68.3854 58.8954 68.3854ZM93.4843 145.698L93.0612 146.266C93.1857 146.217 93.2852 146.143 93.3599 146.044C93.4345 145.945 93.4843 145.821 93.4843 145.698Z" fill="#E0E7FF"/>
<path d="M140.596 88.7507C148.663 88.7507 156.639 88.726 164.614 88.7012C164.889 88.7012 165.164 88.6765 165.393 88.6271C165.622 88.5776 165.851 88.5035 166.035 88.4046C166.218 88.3057 166.356 88.182 166.493 88.0584C166.585 87.9348 166.631 87.7864 166.631 87.6381C166.631 87.4898 166.585 87.3661 166.447 87.2178C166.356 87.0942 166.172 86.9706 165.989 86.8717C165.806 86.7728 165.576 86.6986 165.301 86.6491C165.072 86.5997 164.797 86.575 164.522 86.5997C134.271 86.748 103.562 86.5997 73.3106 86.2041C73.0356 86.2041 72.7606 86.2041 72.5314 86.2535C72.3022 86.303 72.073 86.3772 71.8439 86.4761C71.6605 86.575 71.4772 86.6986 71.3855 86.8222C71.2939 86.9458 71.2022 87.0942 71.2022 87.2425C71.2022 87.3909 71.248 87.5145 71.3397 87.6628C71.4313 87.7865 71.5689 87.9101 71.7522 88.009C71.9355 88.1079 72.1647 88.182 72.3939 88.2315C72.6231 88.2809 72.8981 88.3057 73.1731 88.3057C95.5864 88.6024 118.137 88.7507 140.596 88.7507Z" fill="#A5B4FC"/>
<path d="M148.434 102.583C148.708 102.583 148.957 102.459 149.156 102.286C149.355 102.088 149.455 101.841 149.479 101.569C149.479 101.297 149.405 101.05 149.231 100.827C149.056 100.63 148.808 100.506 148.534 100.481C135.992 99.5171 123.227 99.0721 110.66 99.1215C110.387 99.1215 110.113 99.2204 109.914 99.4182C109.715 99.616 109.615 99.888 109.615 100.16C109.615 100.432 109.715 100.704 109.914 100.902C110.113 101.099 110.387 101.198 110.66 101.198C123.202 101.149 135.893 101.594 148.385 102.558L148.434 102.583Z" fill="#A5B4FC"/>
<path d="M94.7593 100.654C95.033 100.654 95.2819 100.555 95.481 100.358C95.68 100.16 95.7796 99.9125 95.8044 99.6405C95.8044 99.3685 95.7298 99.1213 95.5556 98.8988C95.3814 98.701 95.1326 98.5774 94.8589 98.5279C87.9162 97.9345 80.9486 97.7862 74.006 98.0582C73.8567 98.0582 73.7322 98.1076 73.6078 98.1571C73.4834 98.2065 73.359 98.3054 73.2843 98.4043C73.1848 98.5032 73.1102 98.6268 73.0604 98.7504C73.0106 98.8741 72.9857 99.0224 72.9857 99.146C72.9857 99.2944 73.0355 99.418 73.0853 99.5416C73.135 99.6652 73.2346 99.7889 73.3341 99.863C73.4336 99.9619 73.5581 100.036 73.6825 100.086C73.8069 100.135 73.9562 100.16 74.0806 100.16C80.9486 99.8878 87.8415 100.061 94.6847 100.629L94.7593 100.654Z" fill="#A5B4FC"/>
<path d="M144.361 117.833C144.635 117.833 144.908 117.734 145.107 117.561C145.306 117.363 145.431 117.116 145.431 116.819C145.431 116.548 145.331 116.276 145.157 116.078C144.958 115.88 144.709 115.756 144.411 115.756C120.497 114.1 96.2351 113.581 72.2717 114.199C72.1224 114.199 71.998 114.223 71.8487 114.273C71.7242 114.322 71.5998 114.397 71.5003 114.495C71.4008 114.594 71.3261 114.718 71.2763 114.842C71.2266 114.965 71.2017 115.114 71.2017 115.262C71.2017 115.41 71.2266 115.534 71.3012 115.682C71.351 115.806 71.4505 115.929 71.55 116.028C71.6496 116.127 71.774 116.201 71.9233 116.251C72.0477 116.3 72.197 116.325 72.3463 116.3C96.2351 115.682 120.447 116.201 144.286 117.833H144.361Z" fill="#A5B4FC"/>
<path d="M167.204 135.14C167.478 135.14 167.752 135.042 167.951 134.844C168.15 134.646 168.274 134.374 168.274 134.102C168.274 133.83 168.175 133.558 167.976 133.36C167.777 133.162 167.503 133.039 167.229 133.039L115.52 131.283C115.246 131.283 114.973 131.382 114.799 131.58C114.599 131.778 114.475 132.025 114.475 132.297C114.475 132.569 114.575 132.841 114.749 133.039C114.923 133.237 115.197 133.36 115.47 133.385L167.155 135.14H167.204Z" fill="#A5B4FC"/>
<path d="M96.7578 131.976C97.0315 131.976 97.2804 131.852 97.4795 131.654C97.6785 131.457 97.7781 131.209 97.7781 130.937C97.7781 130.665 97.6785 130.394 97.5043 130.196C97.3302 129.998 97.0564 129.874 96.7827 129.85C88.6456 129.479 80.3841 129.33 72.2222 129.38C71.9484 129.405 71.6996 129.503 71.5005 129.701C71.3014 129.899 71.2019 130.146 71.2019 130.418C71.2019 130.69 71.3014 130.937 71.5005 131.135C71.6996 131.333 71.9484 131.457 72.2222 131.457C80.3344 131.407 88.5461 131.556 96.6583 131.926H96.7578V131.976Z" fill="#A5B4FC"/>
<circle cx="192.38" cy="168.78" r="34.5136" fill="#E1FFE0"/>
<path d="M213.277 158.621L186.999 184.899C186.521 185.376 186.044 185.615 185.327 185.615C184.61 185.615 184.132 185.376 183.655 184.899L171.71 172.954C170.755 171.999 170.755 170.565 171.71 169.61C172.666 168.654 174.099 168.654 175.055 169.61L185.327 179.882L209.933 155.276C210.888 154.321 212.322 154.321 213.277 155.276C214.233 156.232 214.233 157.665 213.277 158.621Z" fill="#38CA47"/>
<path d="M26.0411 190.356C28.9411 196.256 28.0411 203.856 23.8411 208.856C22.4411 210.456 20.7411 211.956 18.6411 212.256C16.5411 212.556 14.1411 211.356 13.6411 209.256C13.0411 206.656 15.7411 204.256 18.4411 204.256C21.1411 204.256 23.3411 206.256 24.8411 208.356C29.9411 215.556 28.2411 226.756 21.0411 232.056" stroke="#8B5CF6" stroke-miterlimit="10" stroke-linecap="round" stroke-linejoin="round"/>
<path d="M33.1825 18.2168C34.7825 23.0168 32.3825 28.8168 27.7825 30.8168" stroke="#B0DFFF" stroke-miterlimit="10" stroke-linecap="round" stroke-linejoin="round"/>
<path d="M41.5457 25.5668C42.3457 29.4668 40.5457 33.7668 37.3457 36.0668" stroke="#B0DFFF" stroke-miterlimit="10" stroke-linecap="round" stroke-linejoin="round"/>
<path d="M191.798 33.9514C194.298 40.2514 196.898 46.6514 199.498 52.9514C203.798 51.0514 208.098 49.1514 212.398 47.3514" stroke="#FFCF64" stroke-miterlimit="10" stroke-linecap="round" stroke-linejoin="round"/>
<path d="M170.993 211.206C173.593 213.506 176.193 215.806 178.693 218.206" stroke="#B0DFFF" stroke-miterlimit="10" stroke-linecap="round" stroke-linejoin="round"/>
<path d="M226.894 203.293C223.694 205.693 220.594 208.093 217.394 210.493" stroke="#8B5CF6" stroke-miterlimit="10" stroke-linecap="round" stroke-linejoin="round"/>
<path d="M225.094 209.493C223.094 211.493 221.094 213.493 219.194 215.393" stroke="#8B5CF6" stroke-miterlimit="10" stroke-linecap="round" stroke-linejoin="round"/>
</svg>
